<svg width="72" height="65" viewBox="0 0 72 65" fill="none" xmlns="http://www.w3.org/2000/svg">
<path d="M52 13H49" stroke="#123149" stroke-width="2.5" stroke-linecap="round" stroke-linejoin="round"/>
<path d="M13 37H16" stroke="#123149" stroke-width="2.5" stroke-linecap="round" stroke-linejoin="round"/>
<path d="M27.1177 49H10.9706C8.59145 49 6.30976 48.0478 4.62745 46.3527C2.94514 44.6576 2 42.3587 2 39.9616V11.0385C2 8.64131 2.94514 6.34236 4.62745 4.64733C6.30976 2.95229 8.59145 2 10.9706 2H54.0295C56.4086 2 58.6903 2.95229 60.3726 4.64733C62.0549 6.34236 63 8.64131 63 11.0385V23.6923" stroke="#123149" stroke-width="2.5" stroke-linecap="round" stroke-linejoin="round"/>
<path d="M25.7452 32C23.9875 30.2423 23 27.8584 23 25.3726C23 22.8868 23.9875 20.5028 25.7452 18.7451C27.5029 16.9874 29.8868 16 32.3726 16C34.8584 16 37.2423 16.9874 39 18.7451" stroke="#123149" stroke-width="2.5" stroke-linecap="round" stroke-linejoin="round"/>
<path d="M53.5 63C50.2366 63 47.0465 62.0323 44.3331 60.2193C41.6197 58.4062 39.5048 55.8292 38.256 52.8143C37.0071 49.7993 36.6804 46.4817 37.3171 43.2811C37.9537 40.0803 39.5252 37.1403 41.8328 34.8328C44.1403 32.5252 47.0803 30.9537 50.2811 30.3171C53.4817 29.6804 56.7993 30.0071 59.8143 31.256C62.8292 32.5048 65.4062 34.6197 67.2193 37.3331C69.0323 40.0465 70 43.2366 70 46.5C70 50.8761 68.2616 55.073 65.1673 58.1673C62.073 61.2616 57.8761 63 53.5 63Z" stroke="#123149" stroke-width="2.5" stroke-linecap="round" stroke-linejoin="round"/>
<path d="M53 42V47.4024L59 50" stroke="#123149" stroke-width="2.5" stroke-linecap="round" stroke-linejoin="round"/>
</svg>
