<svg width="70" height="70" viewBox="0 0 70 70" fill="none" xmlns="http://www.w3.org/2000/svg">
<path d="M68.6538 33.651C68.4771 33.651 68.302 33.6858 68.1386 33.7534C67.9753 33.821 67.8269 33.9202 67.7019 34.0452C67.5769 34.1702 67.4777 34.3186 67.4101 34.482C67.3424 34.6453 67.3076 34.8204 67.3077 34.9972C67.308 42.3246 64.8177 49.4345 60.2453 55.1602C55.6728 60.8859 49.2899 64.8874 42.144 66.5079C34.998 68.1284 27.5135 67.2718 20.9184 64.0786C14.3234 60.8854 9.00969 55.5452 5.8492 48.9345C2.68871 42.3237 1.86919 34.835 3.52511 27.6971C5.18103 20.5593 9.21404 14.1963 14.9623 9.65234C20.7106 5.10835 27.8328 2.65325 35.1601 2.6899C42.4874 2.72656 49.5847 5.2528 55.2872 9.85408H49.6105C49.2535 9.85408 48.9111 9.99591 48.6586 10.2484C48.4062 10.5008 48.2643 10.8432 48.2643 11.2002C48.2643 11.5573 48.4062 11.8997 48.6586 12.1521C48.9111 12.4046 49.2535 12.5464 49.6105 12.5464H58.797C59.1536 12.545 59.4952 12.4028 59.7473 12.1506C59.9995 11.8984 60.1417 11.5568 60.1431 11.2002V2.0138C60.1431 1.65678 60.0013 1.31438 59.7488 1.06192C59.4964 0.809472 59.154 0.667646 58.797 0.667646C58.4399 0.667646 58.0975 0.809472 57.8451 1.06192C57.5926 1.31438 57.4508 1.65678 57.4508 2.0138V8.15167C50.5371 2.36945 41.6593 -0.522631 32.6664 0.077808C23.6735 0.678247 15.2589 4.72492 9.17535 11.3749C3.09177 18.025 -0.191765 26.7656 0.00866419 35.7763C0.209093 44.787 3.87804 53.373 10.2513 59.7459C15.1461 64.6407 21.3825 67.9742 28.1719 69.3246C34.9612 70.6751 41.9985 69.982 48.3939 67.3329C54.7893 64.6839 60.2556 60.1978 64.1014 54.4421C67.9473 48.6864 70 41.9195 70 34.9972C70 34.8204 69.9653 34.6453 69.8976 34.482C69.83 34.3186 69.7308 34.1702 69.6058 34.0452C69.4808 33.9202 69.3324 33.821 69.1691 33.7534C69.0057 33.6858 68.8306 33.651 68.6538 33.651Z" fill="#0DA864"/>
<path d="M42.436 25.3358L35.5764 44.182C35.5155 44.3482 35.4879 44.5248 35.4953 44.7016C35.5027 44.8785 35.5449 45.0521 35.6196 45.2127C35.6942 45.3732 35.7998 45.5174 35.9302 45.6371C36.0607 45.7567 36.2134 45.8495 36.3798 45.91C36.5461 45.9705 36.7228 45.9976 36.8996 45.9898C37.0765 45.9819 37.25 45.9392 37.4103 45.8642C37.5707 45.7892 37.7146 45.6832 37.8339 45.5525C37.9533 45.4217 38.0456 45.2687 38.1057 45.1022L44.9653 26.2561C45.0874 25.9207 45.0711 25.5505 44.9203 25.2271C44.7694 24.9036 44.4962 24.6533 44.1608 24.5313C43.8254 24.4093 43.4552 24.4255 43.1318 24.5764C42.8083 24.7272 42.5581 25.0004 42.436 25.3358Z" fill="#123149"/>
<path d="M23.6393 32.5629C23.6411 31.9098 23.5133 31.2628 23.2634 30.6594C23.0135 30.056 22.6464 29.5082 22.1834 29.0476C20.3048 27.1677 17.0315 27.1677 15.1529 29.0476C14.6897 29.5081 14.3224 30.0559 14.0724 30.6593C13.8224 31.2627 13.6945 31.9097 13.6963 32.5629C13.6963 32.9199 13.8381 33.2623 14.0906 33.5147C14.343 33.7672 14.6854 33.909 15.0425 33.909C15.3995 33.909 15.7419 33.7672 15.9943 33.5147C16.2468 33.2623 16.3886 32.9199 16.3886 32.5629C16.3879 32.2634 16.4466 31.9668 16.5612 31.6902C16.6758 31.4135 16.8442 31.1623 17.0564 30.9511C17.4903 30.536 18.0677 30.3044 18.6681 30.3044C19.2686 30.3044 19.8459 30.536 20.2798 30.9511C20.707 31.3785 20.947 31.958 20.947 32.5622C20.947 33.1664 20.707 33.7459 20.2798 34.1732L14.0907 40.3624C13.9024 40.5506 13.7742 40.7905 13.7222 41.0516C13.6703 41.3127 13.6969 41.5834 13.7988 41.8294C13.9007 42.0753 14.0732 42.2856 14.2946 42.4335C14.516 42.5814 14.7762 42.6603 15.0425 42.6603H22.2932C22.6502 42.6603 22.9926 42.5185 23.2451 42.266C23.4975 42.0136 23.6393 41.6712 23.6393 41.3142C23.6393 40.9571 23.4975 40.6147 23.2451 40.3623C22.9926 40.1098 22.6502 39.968 22.2932 39.968H18.2922L22.1834 36.0768C22.6464 35.6165 23.0135 35.0688 23.2634 34.4657C23.5133 33.8625 23.6411 33.2158 23.6393 32.5629Z" fill="#123149"/>
<path d="M31.3134 42.6601C31.4902 42.6601 31.6653 42.6253 31.8286 42.5577C31.9919 42.4901 32.1404 42.3909 32.2654 42.2659C32.3904 42.1409 32.4895 41.9925 32.5572 41.8291C32.6248 41.6658 32.6596 41.4907 32.6595 41.3139V39.3065H33.3543C33.7113 39.3065 34.0537 39.1646 34.3062 38.9122C34.5587 38.6597 34.7005 38.3173 34.7005 37.9603C34.7005 37.6033 34.5587 37.2609 34.3062 37.0084C34.0537 36.756 33.7113 36.6142 33.3543 36.6142H32.6595V28.9369C32.6594 28.6471 32.5658 28.3651 32.3927 28.1328C32.2196 27.9005 31.9761 27.7302 31.6985 27.6472C31.4209 27.5642 31.1239 27.573 30.8517 27.6723C30.5795 27.7715 30.3465 27.9559 30.1874 28.1981L24.2704 37.2215C24.1372 37.4246 24.0614 37.6599 24.051 37.9025C24.0407 38.1452 24.0961 38.3861 24.2115 38.5998C24.3269 38.8135 24.498 38.992 24.7066 39.1164C24.9152 39.2408 25.1535 39.3065 25.3964 39.3065H29.9672V41.3139C29.9672 41.4907 30.002 41.6658 30.0696 41.8291C30.1372 41.9925 30.2364 42.1409 30.3614 42.2659C30.4864 42.3909 30.6348 42.49 30.7982 42.5577C30.9615 42.6253 31.1366 42.6601 31.3134 42.6601ZM27.8889 36.6142L29.9672 33.4446V36.6142H27.8889Z" fill="#123149"/>
<path d="M49.6315 41.3141C49.6315 41.6711 49.7733 42.0135 50.0258 42.2659C50.2782 42.5184 50.6206 42.6602 50.9776 42.6602C51.3346 42.6602 51.6771 42.5184 51.9295 42.2659C52.182 42.0135 52.3238 41.6711 52.3238 41.3141V38.5428C52.3196 36.935 52.6342 35.3422 53.2496 33.8568C53.8649 32.3713 54.7687 31.0226 55.9087 29.8887C56.097 29.7005 56.2252 29.4607 56.2772 29.1995C56.3291 28.9384 56.3025 28.6678 56.2006 28.4218C56.0987 28.1758 55.9262 27.9656 55.7048 27.8177C55.4834 27.6698 55.2232 27.5908 54.9569 27.5908H46.999C46.642 27.5908 46.2996 27.7326 46.0471 27.9851C45.7947 28.2376 45.6528 28.58 45.6528 28.937C45.6528 29.294 45.7947 29.6364 46.0471 29.8888C46.2996 30.1413 46.642 30.2831 46.999 30.2831H52.1187C50.4893 32.729 49.6236 35.6039 49.6315 38.5428V41.3141Z" fill="#123149"/>
</svg>
