<svg width="68" height="70" viewBox="0 0 68 70" fill="none" xmlns="http://www.w3.org/2000/svg">
<path d="M67.177 50.1026C65.8712 48.1837 63.6563 47.7151 61.25 48.8474L59.9747 49.4089C61.9856 45.1228 62.2351 40.3449 61.234 35.8318C60.0844 30.6484 57.3075 25.627 52.9806 20.907C52.598 20.4896 51.9496 20.4615 51.5321 20.8442C51.1146 21.2267 51.0865 21.8751 51.4692 22.2927C55.5497 26.7437 58.1615 31.4483 59.2323 36.2757C60.3601 41.3607 59.704 46.6047 56.8259 50.7953L44.0643 56.4143L44.0749 54.973C44.0751 54.9366 44.0735 54.9002 44.0698 54.864C43.7752 51.9017 41.5108 49.5416 38.5633 49.1246C38.5546 49.1232 38.5458 49.1221 38.5369 49.1211L27.1946 47.8152C22.8331 47.1944 21.7099 44.5807 15.8031 43.0903C15.395 39.6273 15.939 35.9401 17.43 32.2436C19.6756 26.6767 24.0688 21.2681 30.1591 16.5605C32.429 18.1699 42.5562 18.3702 44.8224 16.294C45.9835 17.1757 47.0916 18.0843 48.1238 19.0041C48.3192 19.1782 48.5628 19.2638 48.8055 19.2638C49.0877 19.2638 49.3688 19.148 49.5712 18.9207C49.9479 18.4979 49.9104 17.8499 49.4877 17.4732C48.3562 16.4652 47.1391 15.4706 45.8626 14.5093C46.1617 13.2408 45.7431 11.7562 44.6384 10.8724C47.8484 6.0036 48.7821 2.81683 47.4924 1.14722C46.6066 0.000283197 45.5047 0.538545 45.0341 0.768506C44.2365 1.15788 43.8016 1.17839 43.0677 0.698232C41.6675 -0.21792 40.1959 -0.247451 38.7506 0.698232C38.0074 1.18454 37.4221 1.18454 36.6792 0.698232C35.2789 -0.21792 33.8078 -0.247451 32.3623 0.698232C31.6199 1.18413 31.1834 1.15405 30.3983 0.763857C29.9283 0.530205 28.8276 -0.0169434 27.9362 1.13013C26.6755 2.75271 27.5189 5.83899 30.5124 10.5423C30.329 10.6414 30.1543 10.7577 29.9912 10.8906C28.8006 9.63335 26.8501 8.32208 24.0293 8.63708C21.6896 8.8989 19.9644 8.12575 18.9289 7.43122C18.4586 7.11622 17.8217 7.24173 17.5064 7.71177C17.1912 8.18208 17.3168 8.81892 17.787 9.13419C19.107 10.0192 21.3008 11.0044 24.2568 10.6747C26.4361 10.4303 27.9148 11.544 28.8354 12.6774C28.8228 12.7211 28.8112 12.7652 28.8004 12.8092C28.0152 12.8215 26.8417 12.8948 25.5495 13.1636C22.4416 13.8101 20.1346 15.2871 18.8777 17.4352C18.5919 17.9238 18.7562 18.5519 19.2448 18.8379C19.7336 19.1238 20.3615 18.9593 20.6474 18.4707C22.5169 15.2757 27.0802 14.885 28.8927 14.8605C28.9004 14.8831 28.9096 14.9054 28.9178 14.9278C22.4499 19.9171 17.947 25.4811 15.5287 31.4762C14.0002 35.2657 13.3896 39.0621 13.6995 42.6699C12.7164 42.5245 11.7219 42.4464 10.7226 42.4396V41.8195C10.7226 40.1791 9.38795 38.8445 7.74746 38.8445H3.04105C1.40057 38.8445 0.065918 40.1792 0.065918 41.8195V65.6967C0.065918 67.3373 1.40057 68.6718 3.04105 68.6718H7.74732C9.38781 68.6718 10.7225 67.3372 10.7225 65.6967V65.4046L20.9888 69.2258C22.3684 69.7392 23.8144 69.9996 25.2864 69.9996H40.5833C42.9221 69.9996 45.2024 69.3379 47.1777 68.0862C67.5842 55.1499 66.345 55.9548 66.4628 55.8503C68.1066 54.3912 68.4137 51.9202 67.177 50.1026ZM42.8985 15.0791C39.1494 16.0258 35.5042 16.0258 31.7543 15.0791C30.1453 14.6724 30.6115 11.8027 32.3407 12.2363C35.6955 13.0785 38.9571 13.0785 42.3121 12.2363C44.0113 11.8098 44.5334 14.666 42.8985 15.0791ZM29.462 2.58837C29.47 2.59233 29.4781 2.59644 29.4857 2.60026C30.8733 3.28987 32.0891 3.32733 33.4849 2.41419C35.2316 1.27081 35.4212 3.10407 37.7147 3.10407C38.8188 3.10407 39.4282 2.7054 39.8731 2.41419C40.6164 1.92774 41.2019 1.92802 41.9451 2.41419C43.347 3.33157 44.5334 3.28632 45.9613 2.59767C46.1723 3.3581 45.6948 5.62503 42.6548 10.1512C41.1451 10.1255 38.9543 11.6083 32.7525 10.2281C29.719 5.64335 29.2499 3.3544 29.462 2.58837ZM65.1572 54.2667L46.0803 66.355C44.4338 67.3983 42.5329 67.9499 40.5835 67.9499H25.2866C24.0595 67.9499 22.8542 67.7328 21.7041 67.3047L10.7225 63.2173V52.1765C10.7225 51.6102 10.2635 51.1513 9.69734 51.1513C9.13119 51.1513 8.67223 51.6102 8.67223 52.1765V65.6972C8.67223 66.2072 8.25729 66.622 7.74746 66.622H3.04105C2.53109 66.622 2.11629 66.207 2.11629 65.6972V41.8201C2.11629 41.3101 2.53109 40.8955 3.04105 40.8955H7.74732C8.25729 40.8955 8.67209 41.3103 8.67209 41.8201V47.3837C8.67209 47.95 9.13105 48.409 9.69721 48.409C10.2634 48.409 10.7223 47.95 10.7223 47.3837V44.4905C19.2031 44.5554 21.1099 49.0254 26.9202 49.8473C26.929 49.8486 26.9377 49.8497 26.9465 49.8507L38.2882 51.1565C40.2742 51.4432 41.8026 53.0246 42.0238 55.0156L42.0096 56.9658H31.4323C30.8662 56.9658 30.4071 57.4248 30.4071 57.9911C30.4071 58.5573 30.8661 59.0163 31.4323 59.0163H43.0273C43.1568 59.0163 43.3064 58.9876 43.4365 58.9309C43.4574 58.9216 62.0662 50.7284 62.088 50.7188C63.4293 50.1227 64.6523 50.0376 65.4816 51.2563C66.1264 52.2033 65.9836 53.4837 65.1572 54.2667Z" fill="#123149"/>
<path d="M37.5967 46.5145C38.1629 46.5145 38.622 46.0555 38.622 45.4892V43.7898C41.5 43.3228 43.1794 40.9932 43.5447 38.8199C44.001 36.1051 42.579 33.7441 39.922 32.805C39.4525 32.639 39.0205 32.4803 38.6218 32.327V25.7902C39.8347 25.9913 40.5628 26.619 40.6159 26.6659C41.0323 27.0446 41.6768 27.0166 42.059 26.6023C42.4429 26.1862 42.4166 25.5376 42.0004 25.1537C41.9281 25.087 40.6725 23.9564 38.6218 23.72V22.2621C38.6218 21.6958 38.1629 21.2368 37.5966 21.2368C37.0304 21.2368 36.5715 21.6958 36.5715 22.2621V23.8029C36.3243 23.8502 36.0711 23.9104 35.8109 23.9887C34.0718 24.5125 32.7719 26.0037 32.4182 27.8801C32.0974 29.5829 32.6373 31.2206 33.8271 32.1538C34.5103 32.6896 35.3703 33.1802 36.5715 33.7046V41.8122C35.3859 41.762 34.656 41.5394 33.3829 40.7065C32.9092 40.3967 32.2737 40.5292 31.9638 41.0032C31.6538 41.4769 31.7866 42.1124 32.2605 42.4223C33.934 43.5172 35.0528 43.8028 36.5715 43.8619V45.4892C36.5715 46.0555 37.0304 46.5145 37.5967 46.5145ZM35.0926 30.5405C34.5073 30.0814 34.2545 29.2075 34.4332 28.2599C34.5989 27.3811 35.2031 26.3133 36.4024 25.9521C36.4594 25.9349 36.5154 25.9201 36.5715 25.9051V31.4429C35.9576 31.1363 35.4762 30.8414 35.0926 30.5405ZM39.2387 34.7382C41.7899 35.6399 41.6318 37.8304 41.5226 38.4802C41.2965 39.8256 40.3088 41.262 38.6218 41.6943V34.516C38.8215 34.589 39.0253 34.6627 39.2387 34.7382Z" fill="#0ECB78"/>
</svg>
