<svg width="30" height="30" viewBox="0 0 30 30" fill="none" xmlns="http://www.w3.org/2000/svg">
<path d="M17.4536 13.6981C17.1575 13.6981 16.8614 13.5853 16.6358 13.3593C14.8319 11.556 11.8968 11.5554 10.0923 13.3593C9.64117 13.8108 8.90781 13.8108 8.45669 13.3593C8.005 12.9077 8.005 12.1758 8.45669 11.7243C11.1628 9.01854 15.5659 9.01912 18.2714 11.7243C18.7231 12.1758 18.7231 12.9077 18.2714 13.3593C18.0459 13.5853 17.7492 13.6981 17.4536 13.6981Z" fill="white"/>
<path d="M16.636 20.2941C14.8587 20.2941 13.0814 19.6177 11.7287 18.2654C11.277 17.8139 11.277 17.0819 11.7287 16.6304C12.1798 16.1789 12.9131 16.1789 13.3643 16.6304C15.1682 18.4336 18.1033 18.4342 19.9078 16.6304C20.3589 16.1789 21.0923 16.1789 21.5434 16.6304C21.9951 17.0819 21.9951 17.8139 21.5434 18.2654C20.19 19.6177 18.4127 20.2941 16.636 20.2941Z" fill="white"/>
<path d="M20.7249 18.6035C20.4288 18.6035 20.1327 18.4908 19.9071 18.2647C19.4554 17.8132 19.4554 17.0812 19.9071 16.6297L26.3685 10.1707C26.8197 9.71915 27.553 9.71915 28.0041 10.1707C28.4558 10.6222 28.4558 11.3541 28.0041 11.8057L21.5427 18.2647C21.3172 18.4908 21.021 18.6035 20.7249 18.6035Z" fill="white"/>
<path d="M10.9923 28.3326C10.6961 28.3326 10.4 28.2199 10.1745 27.9938C9.72277 27.5423 9.72277 26.8104 10.1745 26.3588L13.7863 22.7483C14.2374 22.2968 14.9708 22.2968 15.4219 22.7483C15.8736 23.1998 15.8736 23.9318 15.4219 24.3833L11.8101 27.9938C11.5845 28.2199 11.2884 28.3326 10.9923 28.3326Z" fill="white"/>
<path d="M2.81306 20.1564C2.51695 20.1564 2.22083 20.0437 1.99527 19.8176C1.54357 19.3661 1.54357 18.6341 1.99527 18.1826L8.45668 11.7241C8.90838 11.2726 9.64116 11.2726 10.0923 11.7241C10.544 12.1757 10.544 12.9076 10.0923 13.3591L3.63086 19.8176C3.40473 20.0431 3.10861 20.1564 2.81306 20.1564Z" fill="white"/>
<path d="M15.3953 7.57953C15.0992 7.57953 14.8037 7.4668 14.5775 7.24132C14.1258 6.78979 14.1258 6.05786 14.5775 5.60575L18.1894 1.99465C18.6411 1.54312 19.3733 1.54312 19.8256 1.99465C20.2773 2.44619 20.2773 3.17812 19.8256 3.63023L16.2137 7.24132C15.9876 7.46622 15.6909 7.57953 15.3953 7.57953Z" fill="white"/>
<path d="M6.9027 29.9885C5.11384 29.9885 3.32498 29.3236 1.99533 27.9939C-0.665112 25.3344 -0.665112 20.8416 1.99533 18.1822C2.44645 17.7306 3.17981 17.7306 3.63093 18.1822C4.08263 18.6337 4.08263 19.3656 3.63093 19.8171C1.85769 21.5897 1.85769 24.5857 3.63093 26.3583C5.40418 28.1309 8.40123 28.1309 10.1745 26.3583C10.6256 25.9067 11.3589 25.9067 11.8101 26.3583C12.2618 26.8098 12.2618 27.5417 11.8101 27.9933C10.4804 29.3236 8.69156 29.9885 6.9027 29.9885Z" fill="white"/>
<path d="M27.1863 12.1445C26.8902 12.1445 26.5941 12.0318 26.3685 11.8057C25.9168 11.3542 25.9168 10.6223 26.3685 10.1707C28.1417 8.39813 28.1417 5.40219 26.3685 3.62959C24.5953 1.857 21.5982 1.857 19.825 3.62959C19.3738 4.08113 18.6405 4.08113 18.1894 3.62959C17.7377 3.17806 17.7377 2.44613 18.1894 1.9946C20.8498 -0.664867 25.3442 -0.664867 28.0047 1.9946C30.6651 4.65407 30.6651 9.14683 28.0047 11.8063C27.7785 12.0318 27.4824 12.1445 27.1863 12.1445Z" fill="white"/>
</svg>
