<svg width="70" height="70" viewBox="0 0 70 70" fill="none" xmlns="http://www.w3.org/2000/svg">
<path d="M36.3823 34.4878C35.4783 34.1683 34.4786 33.7825 33.9193 33.3437C33.7496 33.2106 33.6767 32.9028 33.7379 32.5778C33.7686 32.4149 33.912 31.87 34.4679 31.7026C35.519 31.386 36.2088 31.9257 36.284 31.9882C36.7192 32.3501 37.3658 32.2911 37.728 31.8558C38.0902 31.4205 38.0311 30.774 37.5957 30.4118C37.4379 30.2805 36.8668 29.8474 35.9991 29.6505V29.2642C35.9991 28.6979 35.5401 28.2388 34.9737 28.2388C34.4074 28.2388 33.9483 28.6979 33.9483 29.2642V29.7189C33.9242 29.7257 33.9005 29.7316 33.8765 29.7389C32.771 30.0719 31.9456 31.0142 31.7226 32.198C31.5171 33.2885 31.8738 34.3457 32.6537 34.9573C33.2926 35.4584 34.1748 35.8826 35.6988 36.4213C36.6947 36.7733 36.6734 37.5786 36.6178 37.9085C36.5051 38.5799 35.9403 39.3055 34.9668 39.3119C34.0035 39.3178 33.705 39.2708 32.9668 38.7879C32.4927 38.4778 31.8573 38.6107 31.5473 39.0846C31.2373 39.5584 31.3701 40.1941 31.844 40.504C32.6423 41.0263 33.2332 41.2409 33.9483 41.3206V41.7568C33.9483 42.323 34.4074 42.7821 34.9737 42.7821C35.5401 42.7821 35.9991 42.323 35.9991 41.7568V41.2192C37.4793 40.7986 38.4272 39.5151 38.6402 38.2484C38.9214 36.5759 38.014 35.0646 36.3823 34.4878Z" fill="#0ECB78"/>
<path d="M59.5151 49.031C56.993 49.031 54.6764 49.9264 52.8656 51.4153L44.839 43.3887C46.3754 41.4807 47.3673 39.1172 47.5763 36.5355H53.3676C53.8587 39.5252 56.4595 41.8136 59.5859 41.8136C63.0615 41.8136 65.889 38.9861 65.889 35.5106C65.889 32.0352 63.0615 29.2076 59.5859 29.2076C56.46 29.2076 53.8594 31.4956 53.3679 34.4847H47.5763C47.3463 31.6489 46.1723 29.0759 44.3695 27.0815L54.8691 16.5819C56.1742 17.5939 57.8105 18.1986 59.5861 18.1986C63.8395 18.1986 67.3002 14.7381 67.3002 10.4846C67.3002 6.23114 63.8395 2.77063 59.5861 2.77063C55.3326 2.77063 51.872 6.23114 51.872 10.4846C51.872 12.2247 52.4517 13.8314 53.4272 15.1234L42.8748 25.6757C40.9737 24.1573 38.6247 23.1774 36.0607 22.9696V16.0679C38.7029 15.5836 40.712 13.2651 40.712 10.4844C40.712 7.3543 38.1655 4.80775 35.0353 4.80775C32.8571 4.80775 30.8451 6.07788 29.9094 8.0435C29.666 8.55483 29.8833 9.16665 30.3945 9.41015C30.9061 9.65351 31.5176 9.43626 31.7611 8.92507C32.3586 7.66985 33.6439 6.85869 35.0353 6.85869C37.0345 6.85869 38.6612 8.48524 38.6612 10.4845C38.6612 12.4846 37.0347 14.1117 35.0353 14.1117C33.6443 14.1117 32.359 13.3 31.7611 12.0439C31.5176 11.5327 30.9061 11.3155 30.3945 11.5588C29.8831 11.8022 29.6659 12.414 29.9094 12.9255C30.6961 14.578 32.2435 15.7358 34.0097 16.0643V22.9697C31.4282 23.1789 29.0649 24.1708 27.1569 25.707L18.5842 17.1343C20.0735 15.3234 20.969 13.0067 20.969 10.4846C20.969 4.70344 16.2656 0 10.4844 0C4.70316 0 0 4.7033 0 10.4845C0 16.2657 4.7033 20.9691 10.4846 20.9691C13.0067 20.9691 15.3234 20.0736 17.1343 18.5843L25.6685 27.1184C23.8843 29.1078 22.723 31.6664 22.4944 34.4847H13.4387C12.9919 32.9271 11.5557 31.7835 9.85641 31.7835C7.80137 31.7835 6.12942 33.4555 6.12942 35.5106C6.12942 37.5657 7.80137 39.2376 9.85641 39.2376C11.5561 39.2376 12.9926 38.0936 13.439 36.5355H22.4941C22.7018 39.0998 23.6817 41.4489 25.2003 43.3502L18.5642 49.9863C18.1638 50.3867 18.1638 51.036 18.5642 51.4363C18.7644 51.6365 19.0269 51.7367 19.2893 51.7367C19.5516 51.7367 19.8141 51.6366 20.0143 51.4363L26.6058 44.8448C28.6006 46.6478 31.1736 47.8219 34.0097 48.0517V51.8714C30.2396 52.3746 27.3211 55.6094 27.3211 59.5152C27.3211 63.7687 30.7816 67.2292 35.0351 67.2292C39.2886 67.2292 42.7493 63.7687 42.7493 59.5152C42.7493 55.6096 39.8309 52.3746 36.0605 51.8714V48.0517C38.8792 47.8232 41.4379 46.6619 43.4274 44.8776L51.4151 52.8653C49.9257 54.676 49.0301 56.9926 49.0301 59.5147C49.0301 65.2962 53.7335 69.9997 59.515 69.9997C61.5715 69.9997 63.5625 69.4042 65.273 68.2775C65.746 67.966 65.8768 67.33 65.5654 66.8571C65.2536 66.3842 64.6176 66.2533 64.1448 66.5648C62.7703 67.4703 61.1693 67.9488 59.515 67.9488C54.8643 67.9488 51.0809 64.1652 51.0809 59.5145C51.0809 54.8646 54.8644 51.0817 59.515 51.0817C64.1658 51.0817 67.9492 54.8646 67.9492 59.5145C67.9492 61.0837 67.5153 62.6147 66.6943 63.9422C66.3963 64.4239 66.5454 65.0558 67.0272 65.3537C67.5083 65.6512 68.1405 65.5026 68.4385 65.0209C69.4601 63.3689 70 61.465 70 59.5145C70.0003 53.734 65.2966 49.031 59.5151 49.031ZM59.5861 31.2585C61.9307 31.2585 63.8383 33.166 63.8383 35.5108C63.8383 37.8555 61.9308 39.7629 59.5861 39.7629C57.2416 39.7629 55.3339 37.8554 55.3339 35.5108C55.3339 33.1662 57.2414 31.2585 59.5861 31.2585ZM9.85641 37.1868C8.93218 37.1868 8.18022 36.4349 8.18022 35.5106C8.18022 34.5863 8.93218 33.8343 9.85641 33.8343C10.7808 33.8343 11.5327 34.5863 11.5327 35.5106C11.5327 36.4349 10.7808 37.1868 9.85641 37.1868ZM59.5861 4.82115C62.7089 4.82115 65.2494 7.36168 65.2494 10.4844C65.2494 13.607 62.7089 16.1476 59.5861 16.1476C56.4634 16.1476 53.9228 13.607 53.9228 10.4844C53.9228 7.36168 56.4634 4.82115 59.5861 4.82115ZM10.4846 18.9182C5.83411 18.9182 2.0508 15.1349 2.0508 10.4845C2.0508 5.83411 5.83411 2.05066 10.4846 2.05066C15.1352 2.05066 18.9185 5.83397 18.9185 10.4845C18.9185 15.135 15.135 18.9182 10.4846 18.9182ZM40.6986 59.5152C40.6986 62.6379 38.1581 65.1784 35.0353 65.1784C31.9126 65.1784 29.3721 62.6379 29.3721 59.5152C29.3721 56.3926 31.9126 53.852 35.0353 53.852C38.1581 53.8519 40.6986 56.3924 40.6986 59.5152ZM35.0353 46.0429C29.2277 46.0429 24.5031 41.3181 24.5031 35.5106C24.5031 29.7032 29.2278 24.9783 35.0353 24.9783C40.8427 24.9783 45.5675 29.7031 45.5675 35.5106C45.5675 41.3182 40.8429 46.0429 35.0353 46.0429Z" fill="#123149"/>
<path d="M15.6659 52.8846L13.1998 55.3497C12.4157 54.8453 11.4839 54.5512 10.4844 54.5512C7.70817 54.5512 5.44971 56.8098 5.44971 59.586C5.44971 62.3623 7.70831 64.6207 10.4844 64.6207C13.2605 64.6207 15.5192 62.3621 15.5192 59.586C15.5192 58.5498 15.2044 57.5858 14.6654 56.7844L17.1157 54.3352C17.5161 53.9349 17.5164 53.2856 17.116 52.885C16.7156 52.4843 16.0665 52.4844 15.6659 52.8846ZM10.4845 62.5699C8.83911 62.5699 7.50063 61.2313 7.50063 59.586C7.50063 57.9408 8.83925 56.602 10.4845 56.602C12.1298 56.602 13.4686 57.9406 13.4686 59.586C13.4686 61.2315 12.1298 62.5699 10.4845 62.5699Z" fill="#0ECB78"/>
</svg>
