<svg width="70" height="67" viewBox="0 0 70 67" fill="none" xmlns="http://www.w3.org/2000/svg">
<path d="M34.7665 66.796C32.3281 66.796 29.8909 66.3045 27.6339 65.3229L16.8415 60.6313C12.9371 58.933 8.80879 57.8573 4.57149 57.4337L1.02734 57.0793C0.443834 57.0212 0 56.5304 0 55.9443V44.8269C0 44.5802 0.0802817 44.34 0.228444 44.1429C0.493438 43.7885 6.84548 35.4901 16.5485 37.6492C22.0057 38.8619 26.3996 41.1313 29.1246 42.8218C31.1029 44.0489 33.422 44.697 35.8311 44.697H46.6234C48.4836 44.697 50.1186 45.6813 51.033 47.1577L60.3281 36.4489C62.1302 34.0424 65.0784 32.5686 68.165 32.5686H68.8595C69.2452 32.5686 69.6042 32.7631 69.8144 33.0855C70.0252 33.408 70.0585 33.8159 69.9038 34.1684L61.4971 53.2741C59.6591 57.4527 55.9165 60.6091 51.4867 61.7167L50.0076 62.0861L41.4038 65.5278C39.2864 66.3744 37.0262 66.796 34.7665 66.796ZM2.28183 54.9117L4.79862 55.1637C9.27155 55.6107 13.6296 56.7471 17.752 58.5394L28.5437 63.231C32.3385 64.881 36.7148 64.9456 40.5573 63.4085L49.2316 59.9388C49.2799 59.9198 49.3288 59.9042 49.3791 59.8918L50.9332 59.5028C54.6842 58.5649 57.8531 55.8927 59.4084 52.3551L67.0763 34.9288C65.113 35.2179 63.3063 36.2759 62.1028 37.8802L51.8058 49.7476C51.8071 49.792 51.8078 49.8357 51.8078 49.8807C51.8078 52.7389 49.4822 55.0644 46.6241 55.0644H31.5664C29.6089 55.0644 27.6743 55.3784 25.8174 55.9971L25.3984 54.9332L25.044 53.8491L25.1021 53.8302C27.1861 53.1357 29.3629 52.7826 31.5664 52.7826H46.6241C48.2238 52.7826 49.5266 51.4805 49.5266 49.8801C49.5266 48.2797 48.2245 46.9775 46.6241 46.9775H35.8317C32.9971 46.9775 30.2623 46.2106 27.923 44.7597C25.3488 43.1625 21.1989 41.0197 16.055 39.8755C8.70697 38.2458 3.41948 43.8851 2.28248 45.2303V54.9117H2.28183Z" fill="currentColor"/>
<path d="M44.9255 32.3108C43.171 32.3108 41.2038 31.7691 39.0382 30.6863C38.7758 30.5544 38.5735 30.326 38.4742 30.0499C38.3861 29.8025 36.3478 23.9394 39.5871 19.6035C41.9414 16.4516 46.368 15.032 52.7513 15.3877C53.3335 15.4197 53.7976 15.8864 53.8263 16.4699C53.8492 16.9229 54.3198 27.6147 48.8678 31.1745C47.7086 31.9323 46.3914 32.3108 44.9255 32.3108ZM40.493 28.8555C43.4896 30.2607 45.885 30.3984 47.6211 29.2647C50.8539 27.1532 51.553 20.8854 51.5699 17.6232C46.5683 17.5012 43.1632 18.6284 41.4146 20.9683C39.3338 23.7546 40.1425 27.5873 40.493 28.8555Z" fill="#0ECB78"/>
<path d="M27.4805 17.3647C25.4578 17.3647 23.1244 16.9313 21.088 15.4399C17.6339 12.9087 16.0465 8.08984 16.369 1.11774C16.3964 0.53488 16.8585 0.0662442 17.4414 0.0316513C17.9348 0.00358536 29.6141 -0.61974 33.544 5.27933C35.3742 8.02522 35.2241 11.6216 33.0995 15.9705C32.9703 16.2348 32.7445 16.4391 32.4684 16.5403C32.315 16.5971 30.1735 17.3647 27.4805 17.3647ZM32.0748 15.4699H32.0859H32.0748ZM18.6143 2.27627C18.5157 7.86074 19.7996 11.6673 22.4358 13.5993C25.5922 15.9118 29.902 14.9288 31.257 14.5339C32.8071 11.1699 32.9383 8.48407 31.646 6.54426C29.2441 2.93876 22.2002 2.23385 18.6143 2.27627Z" fill="#0ECB78"/>
<path d="M36.3881 46.5766C36.3522 46.5766 36.3163 46.5746 36.2797 46.5713C35.6721 46.5139 35.2171 45.9885 35.2478 45.3782C35.3151 44.0363 35.4299 42.7635 35.5859 41.5573C36.0604 33.4848 35.8157 14.6858 23.9301 9.48512C23.3531 9.23253 23.0894 8.56025 23.342 7.98262C23.5939 7.40629 24.2682 7.14325 24.8445 7.39519C31.8486 10.4596 36.2549 18.089 37.5845 29.4583C37.7039 30.4771 37.7933 31.4816 37.8599 32.46C40.9902 24.55 45.7791 21.7552 46.0643 21.5953C46.6126 21.2852 47.3084 21.4823 47.6177 22.0299C47.9251 22.5782 47.732 23.272 47.1856 23.5814C47.0649 23.6519 39.7214 28.0589 37.8782 41.6494C37.7379 43.9743 37.5355 45.4565 37.5166 45.5923C37.4376 46.1614 36.9514 46.5766 36.3881 46.5766Z" fill= "#0ECB78">
</svg>
