<svg width="1440" height="401" viewBox="0 0 1440 401" fill="none" xmlns="http://www.w3.org/2000/svg">
<path opacity="0.8" d="M51.5359 119.559L1.72473 126.482C0.735962 126.619 0 127.464 0 128.463V399C0 400.105 0.895508 401 2 401H1438C1439.1 401 1440 400.105 1440 399V44.1137C1440 42.5071 1438.2 41.5562 1436.87 42.461L1375.72 84.136C1375.64 84.1909 1375.56 84.2517 1375.49 84.3179L1322.94 132.74C1322.11 133.512 1320.79 133.43 1320.06 132.561L1268.55 71.6251L1218.24 3.45425C1217.23 2.08678 1215.09 2.52147 1214.69 4.1738L1163.63 216.295C1163.28 217.777 1161.46 218.331 1160.34 217.3L1110.19 171.252C1110.05 171.125 1109.93 170.979 1109.83 170.819L1059.21 87.6443C1058.35 86.2349 1056.25 86.4119 1055.64 87.9452L1004.64 216.223C1004.41 216.806 1003.91 217.247 1003.31 217.413L951.706 231.586C951.512 231.639 951.327 231.722 951.157 231.83L898.697 265.422C898.604 265.481 898.506 265.533 898.404 265.577L847.842 287.16C846.716 287.641 845.425 287.006 845.12 285.819L793.465 85.0577C793.146 83.819 791.763 83.1936 790.622 83.7729L740.728 109.117C740.254 109.358 739.896 109.777 739.732 110.282L688.829 266.852C688.252 268.627 685.773 268.714 685.073 266.984L634.506 142.07C634.356 141.699 634.098 141.382 633.766 141.159L583.323 107.358C582.316 106.683 580.945 107.052 580.413 108.142L528.788 213.802C528.641 214.105 528.419 214.365 528.144 214.559L478.042 249.872C476.907 250.672 475.322 250.101 474.959 248.76L423.956 60.4018C423.514 58.7719 421.377 58.3887 420.396 59.7638L370.367 129.959C370.125 130.299 369.782 130.555 369.387 130.69L318.135 148.243C317.511 148.457 316.822 148.349 316.292 147.956L265.049 109.802C264.563 109.441 263.94 109.318 263.354 109.47L212.258 122.658C211.726 122.796 211.275 123.145 211.008 123.625L159.259 216.955C158.846 217.699 158.007 218.101 157.168 217.955L106.623 209.174C106.046 209.074 105.541 208.725 105.243 208.219L53.5341 120.524C53.1239 119.828 52.3357 119.448 51.5359 119.559Z" fill="url(#paint0_linear_1912_228)" fill-opacity="0.2"/>
<path opacity="0.8" d="M1440 72C1094.84 433.488 394.445 397.702 0 397.702V401H1440V72Z" fill="url(#paint1_linear_1912_228)" fill-opacity="0.2"/>
<defs>
<linearGradient id="paint0_linear_1912_228" x1="720" y1="0" x2="720" y2="401" gradientUnits="userSpaceOnUse">
<stop stop-color="#0ECB78"/>
<stop offset="1" stop-color="#0ECB78" stop-opacity="0"/>
</linearGradient>
<linearGradient id="paint1_linear_1912_228" x1="932.182" y1="320.193" x2="932.182" y2="429.035" gradientUnits="userSpaceOnUse">
<stop stop-color="#1C86FF"/>
<stop offset="1" stop-color="#1C86FF" stop-opacity="0"/>
</linearGradient>
</defs>
</svg>
