<svg width="50" height="64" viewBox="0 0 50 64" fill="none" xmlns="http://www.w3.org/2000/svg">
<path d="M49.1985 25.8992C50.4485 23.9844 50.2176 21.493 48.6371 19.8404C47.9406 19.112 47.6494 18.0888 47.8581 17.1029C48.3321 14.8658 47.2168 12.6259 45.1459 11.656C44.2333 11.2285 43.5922 10.3794 43.4307 9.38472C43.0644 7.12749 41.2152 5.44177 38.9339 5.28531C37.9285 5.21632 37.0239 4.65626 36.514 3.78698C35.3569 1.81471 33.0243 0.910808 30.84 1.58889C29.8776 1.88777 28.8319 1.69213 28.0423 1.06591C26.2509 -0.355295 23.7488 -0.355295 21.9576 1.06591C21.1681 1.69237 20.1222 1.88777 19.1599 1.58889C16.9761 0.910685 14.6428 1.81459 13.4859 3.78698C12.9759 4.65626 12.0714 5.21632 11.066 5.28531C8.78464 5.44177 6.93556 7.12761 6.56917 9.38472C6.40778 10.3794 5.76654 11.2285 4.85401 11.656C2.78331 12.626 1.668 14.8659 2.14169 17.1029C2.35051 18.0888 2.05928 19.1122 1.36284 19.8405C-0.217542 21.4931 -0.448537 23.9846 0.801426 25.8995C1.35224 26.7433 1.45043 27.8028 1.06396 28.7335C0.187163 30.8454 0.872018 33.2521 2.7291 34.586C3.54763 35.1741 4.02181 36.1265 3.99767 37.1339C3.94309 39.4198 5.45103 41.4166 7.66465 41.9897C8.31809 42.1589 8.88578 42.537 9.29258 43.0527L4.20156 55.3433C3.48812 57.0657 5.10287 58.8394 6.88345 58.2927L12.4572 56.5822C12.62 56.5326 12.7957 56.6054 12.8754 56.7556L15.6071 61.9062C16.4809 63.5539 18.8765 63.4376 19.5891 61.7171L24.8953 48.9069C24.9649 48.9046 25.0345 48.9046 25.1041 48.9069L30.4104 61.7171C31.1243 63.4403 33.5198 63.5515 34.3925 61.9064L37.1242 56.7556C37.2038 56.6053 37.3796 56.5325 37.5424 56.5824L43.116 58.2928C44.8976 58.8397 46.5111 57.0648 45.798 55.3434L40.7069 43.0528C41.1137 42.5371 41.6814 42.159 42.3348 41.9899C44.5484 41.4169 46.0563 39.4201 46.0018 37.134C45.9776 36.1266 46.452 35.1742 47.2705 34.5863C49.1277 33.2522 49.8123 30.8455 48.9355 28.7337C48.5497 27.8025 48.6478 26.743 49.1985 25.8992ZM17.8822 61.0097C17.7662 61.2896 17.3811 61.3068 17.2398 61.0403L14.5082 55.8896C14.014 54.9579 12.9236 54.5065 11.9155 54.8157L6.34175 56.5262C6.05261 56.6146 5.79327 56.3298 5.90908 56.0503L10.4258 45.1457C11.4448 46.5416 13.1484 47.3196 14.9418 47.1102C15.9427 46.9935 16.9348 47.3777 17.5957 48.1383C18.5546 49.2421 19.9057 49.8281 21.2842 49.8279C21.7201 49.8279 22.1587 49.767 22.5887 49.6476L17.8822 61.0097ZM43.6585 56.5261L38.0849 54.8156C37.0767 54.5064 35.9861 54.9579 35.4921 55.8895L32.7604 61.0402C32.6193 61.3064 32.2337 61.2891 32.1179 61.0096L27.4124 49.6497C29.2011 50.1462 31.1426 49.5905 32.4045 48.138C33.0653 47.3773 34.057 46.9929 35.0584 47.1099C36.8535 47.3198 38.556 46.5415 39.5745 45.1456L44.0914 56.0498C44.2074 56.3304 43.9466 56.6142 43.6585 56.5261ZM47.6513 24.8893C46.7665 26.2448 46.6088 27.9467 47.2295 29.4418C47.7752 30.7564 47.3491 32.2545 46.1929 33.0851C44.8781 34.0296 44.1163 35.5595 44.1549 37.1777C44.1889 38.6009 43.2502 39.844 41.8721 40.2006C40.5831 40.5344 39.5007 41.3734 38.8515 42.5079C38.8498 42.5112 38.848 42.5144 38.8462 42.5176C38.7086 42.7595 38.5894 43.014 38.4934 43.2807C38.0111 44.62 36.6876 45.4407 35.2729 45.2749C33.6653 45.0869 32.0712 45.7045 31.0096 46.9265C30.0762 48.001 28.5449 48.2872 27.2861 47.6226C26.858 47.3964 26.4046 47.2394 25.9416 47.1486C25.9378 47.1478 25.934 47.1469 25.9302 47.1462C25.3152 47.027 24.6832 47.0272 24.0682 47.1467C24.066 47.1472 24.0639 47.1476 24.0616 47.148C23.5976 47.2388 23.1433 47.396 22.7142 47.6226C21.4554 48.2873 19.9243 48.001 18.9908 46.9265C18.0548 45.8491 16.7054 45.2418 15.2971 45.2418C15.1081 45.2418 14.9178 45.2527 14.7274 45.275C13.3141 45.4405 11.9891 44.6202 11.5068 43.2808C11.4108 43.0144 11.2918 42.7602 11.1543 42.5185C11.1523 42.5145 11.1502 42.5109 11.1481 42.5069C10.4988 41.3729 9.41677 40.5343 8.12812 40.2006C6.75003 39.8439 5.81138 38.6009 5.84539 37.1779C5.88407 35.5595 5.12222 34.0297 3.80745 33.0851C2.65136 32.2546 2.22498 30.7564 2.77087 29.4417C3.39154 27.9465 3.23384 26.2447 2.34904 24.8891C1.57104 23.6972 1.71469 22.1462 2.69867 21.1174C3.81743 19.9476 4.28521 18.3036 3.94987 16.72C3.65493 15.3274 4.34927 13.9331 5.63829 13.3291C7.10422 12.6424 8.13415 11.2785 8.39361 9.68064C8.62165 8.27544 9.77281 7.22605 11.1929 7.12872C12.8079 7.01797 14.2611 6.11825 15.0802 4.72181C15.8005 3.49402 17.2532 2.9315 18.6122 3.35357C20.1582 3.83367 21.8383 3.51964 23.1065 2.51349C24.2214 1.62868 25.7791 1.62868 26.8945 2.51349C28.1625 3.51952 29.8423 3.8338 31.3886 3.35357C32.7481 2.93137 34.2006 3.49414 34.9207 4.72181C35.7397 6.11813 37.1929 7.01784 38.8079 7.12872C40.228 7.22617 41.3792 8.27557 41.6072 9.68064C41.8667 11.2785 42.8967 12.6424 44.3625 13.3293C45.6517 13.9331 46.3459 15.3274 46.051 16.72C45.7156 18.3036 46.1833 19.9476 47.3022 21.1174C48.2856 22.1462 48.4293 23.6972 47.6513 24.8893Z" fill="#123149"/>
<path d="M7.50068 23.6697C8.00665 23.7319 8.46827 23.372 8.53049 22.8656C9.55081 14.5726 16.6316 8.31892 25.0008 8.31892C33.374 8.31892 40.4551 14.5759 41.4721 22.8734C41.5295 23.3416 41.9279 23.685 42.3879 23.685C42.4255 23.685 42.4633 23.6827 42.5015 23.678C43.008 23.6159 43.3682 23.155 43.3062 22.6485C42.1758 13.4258 34.3062 6.47108 25.0008 6.47108C15.6997 6.47108 7.8306 13.4221 6.69644 22.6399C6.63423 23.1464 6.99421 23.6074 7.50068 23.6697Z" fill="#123149"/>
<path d="M42.5 26.1498C41.995 26.0882 41.5326 26.4481 41.4705 26.9545C40.4539 35.2524 33.3727 41.5097 24.9991 41.5097C16.6293 41.5097 9.54851 35.2555 8.52856 26.9618C8.46634 26.4555 8.00558 26.0956 7.49875 26.1576C6.9924 26.2198 6.63217 26.6809 6.69451 27.1874C7.82818 36.4059 15.6973 43.3575 24.999 43.3575C34.3048 43.3575 42.1745 36.4023 43.3044 27.1791C43.3666 26.6728 43.0064 26.2119 42.5 26.1498Z" fill="#123149"/>
<path d="M38.0458 21.1013C37.811 20.3786 37.1687 19.894 36.4092 19.8667L29.165 19.6069L26.6793 12.7975C26.4187 12.0837 25.7593 11.6225 24.9995 11.6225C24.2396 11.6225 23.5802 12.0837 23.3197 12.7975L20.8339 19.6069L13.5898 19.8667C12.8304 19.894 12.1879 20.3786 11.9531 21.1013C11.7183 21.824 11.9531 22.5937 12.5514 23.0621L18.2593 27.5304L16.2679 34.5004C16.0591 35.2311 16.3215 35.9918 16.9364 36.4386C17.5506 36.8848 18.3552 36.9001 18.9861 36.4753L24.9993 32.4274L31.0127 36.475C31.6429 36.8993 32.4475 36.885 33.0624 36.4383C33.6773 35.9917 33.9395 35.231 33.7307 34.5002L31.7394 27.5303L37.4472 23.062C38.0457 22.5936 38.2807 21.824 38.0458 21.1013ZM30.569 26.0999C29.993 26.5508 29.7507 27.2965 29.9518 27.9995L31.9094 34.8512L25.9981 30.8722C25.6947 30.668 25.347 30.5658 24.9993 30.5658C24.6517 30.5658 24.304 30.668 24.0007 30.8721L18.0893 34.851L20.0469 27.9995C20.2478 27.2963 20.0056 26.5508 19.4298 26.0999L13.8187 21.7074L20.9401 21.4519C21.6709 21.4257 22.3051 20.9648 22.5558 20.278L24.9995 13.5842L27.4431 20.278C27.6939 20.9648 28.328 21.4257 29.0588 21.4518L36.18 21.7073L30.569 26.0999Z" fill="#0DA864"/>
</svg>
