<svg width="70" height="75" viewBox="0 0 70 75" fill="none" xmlns="http://www.w3.org/2000/svg">
<path d="M52.3078 37.204C52.1356 37.2049 51.9658 37.164 51.813 37.0849L35.3943 29.1687C35.203 29.0761 35.0414 28.9318 34.928 28.752C34.8147 28.5722 34.754 28.3642 34.7529 28.1517V10.4411C34.7537 10.249 34.8028 10.0603 34.8957 9.89216C34.9886 9.72405 35.1222 9.58199 35.2843 9.47905C35.4388 9.38919 35.6124 9.33734 35.7908 9.32779C35.9692 9.31823 36.1474 9.35123 36.3105 9.42407L52.8025 17.3311C52.9939 17.4236 53.1554 17.568 53.2688 17.7478C53.3821 17.9276 53.4428 18.1355 53.4439 18.3481V36.0678C53.4364 36.2522 53.3841 36.432 53.2915 36.5917C53.1989 36.7513 53.0688 36.886 52.9125 36.9841C52.7349 37.1115 52.5257 37.1875 52.3078 37.204ZM36.9885 27.4095L51.1717 34.2354V19.0811L36.9885 12.246V27.4095Z" fill="#0ECB78"/>
<path d="M52.3078 19.4844C52.1368 19.484 51.968 19.4465 51.813 19.3745L35.3943 11.4583C35.2016 11.3651 35.0391 11.2193 34.9256 11.0377C34.8121 10.8562 34.7523 10.6463 34.7529 10.4322C34.7529 10.2194 34.8132 10.011 34.9267 9.83098C35.0402 9.65101 35.2023 9.50684 35.3943 9.41516L51.8863 1.50815C52.0395 1.43559 52.207 1.39795 52.3765 1.39795C52.546 1.39795 52.7134 1.43559 52.8667 1.50815L69.3587 9.42432C69.5514 9.51755 69.7139 9.66335 69.8274 9.84491C69.9408 10.0265 70.0007 10.2364 70 10.4505C69.9969 10.6709 69.9281 10.8855 69.8024 11.0666C69.6768 11.2478 69.4999 11.3873 69.2946 11.4675L52.8025 19.3745C52.6475 19.4465 52.4787 19.484 52.3078 19.4844ZM38.4728 10.4322L52.3078 17.0931L66.1519 10.4505L52.3169 3.78955L38.4728 10.4322Z" fill="#0ECB78"/>
<path d="M52.3075 37.2037C52.094 37.201 51.8851 37.1409 51.7028 37.0297C51.5465 36.9316 51.4164 36.7969 51.3238 36.6373C51.2312 36.4776 51.1789 36.2978 51.1714 36.1134V18.3662C51.1714 18.1534 51.2316 17.945 51.3451 17.765C51.4586 17.585 51.6207 17.4409 51.8127 17.3492L68.3048 9.42386C68.4763 9.3399 68.6663 9.3009 68.857 9.31051C69.0477 9.32013 69.2329 9.37805 69.3951 9.47883C69.5572 9.58177 69.6908 9.72383 69.7837 9.89194C69.8766 10.0601 69.9257 10.2488 69.9265 10.4409V28.1515C69.9254 28.364 69.8647 28.572 69.7514 28.7518C69.638 28.9315 69.4764 29.0759 69.2851 29.1685L52.8023 37.0846C52.6494 37.1638 52.4796 37.2047 52.3075 37.2037ZM53.4436 19.0809V34.2627L67.6268 27.4093V12.2458L53.4436 19.0809Z" fill="#0ECB78"/>
<path d="M44.0803 15.4989C43.8388 15.4756 43.6111 15.3756 43.4305 15.2135C43.2499 15.0514 43.1259 14.8358 43.0768 14.5982C43.0276 14.3606 43.0558 14.1134 43.1573 13.893C43.2587 13.6726 43.4281 13.4904 43.6405 13.3732L60.1325 5.46622C60.392 5.39974 60.6666 5.42706 60.9079 5.54338C61.1492 5.65969 61.3416 5.85751 61.4512 6.10191C61.5608 6.34632 61.5805 6.62158 61.5069 6.87911C61.4332 7.13664 61.271 7.35987 61.0488 7.5094L44.5567 15.4164C44.4051 15.4757 44.2431 15.5037 44.0803 15.4989Z" fill="#0ECB78"/>
<path d="M46.2881 23.2956C46.1172 23.2943 45.9486 23.2568 45.7933 23.1856L40.9373 20.8492C40.792 20.7921 40.66 20.7056 40.5495 20.5952C40.4391 20.4848 40.3526 20.3528 40.2955 20.2074C40.2384 20.0621 40.2119 19.9065 40.2176 19.7505C40.2232 19.5944 40.261 19.4412 40.3286 19.3004C40.3962 19.1596 40.492 19.0342 40.6102 18.9321C40.7284 18.8301 40.8663 18.7534 41.0154 18.707C41.1646 18.6607 41.3216 18.6455 41.4769 18.6625C41.6321 18.6796 41.7822 18.7284 41.9177 18.8061L46.7828 21.1424C47.0112 21.2561 47.1947 21.4434 47.3037 21.674C47.4127 21.9047 47.4409 22.1653 47.3838 22.4139C47.3266 22.6626 47.1875 22.8847 46.9887 23.0447C46.79 23.2046 46.5432 23.293 46.2881 23.2956Z" fill="#0ECB78"/>
<path d="M28.2476 16.6165H14.5043C14.2117 16.6093 13.9335 16.4887 13.7283 16.2801C13.5231 16.0715 13.4071 15.7913 13.4048 15.4987V5.22782C13.4048 4.9265 13.5245 4.63752 13.7375 4.42446C13.9506 4.2114 14.2396 4.0917 14.5409 4.0917H19.6901C20.4693 2.79154 21.585 1.72582 22.9195 1.00701C24.2539 0.288196 25.7577 -0.0570559 27.2721 0.00768541C28.7865 0.0724267 30.2553 0.544761 31.5236 1.37484C32.7919 2.20493 33.8125 3.36198 34.4779 4.72389C34.5961 4.99158 34.6065 5.29456 34.5069 5.5697C34.4072 5.84485 34.2053 6.07093 33.943 6.20085C33.6808 6.33077 33.3786 6.35451 33.0993 6.26712C32.8201 6.17973 32.5853 5.98795 32.4439 5.73174C31.9391 4.69225 31.152 3.81578 30.1726 3.20257C29.1931 2.58937 28.0609 2.26417 26.9053 2.26417C25.7498 2.26417 24.6175 2.58937 23.6381 3.20257C22.6586 3.81578 21.8715 4.69225 21.3668 5.73174C21.2747 5.92272 21.1301 6.08357 20.9501 6.19551C20.77 6.30745 20.5618 6.36586 20.3498 6.36393H15.677V14.3442H28.2476C28.5489 14.3442 28.8379 14.4639 29.051 14.677C29.264 14.8901 29.3837 15.179 29.3837 15.4804C29.3837 15.7817 29.264 16.0706 29.051 16.2837C28.8379 16.4968 28.5489 16.6165 28.2476 16.6165Z" fill="#123149"/>
<path d="M51.1259 74.0639H1.12755C0.979557 74.0639 0.833012 74.0348 0.696284 73.9781C0.559555 73.9215 0.435321 73.8385 0.330673 73.7338C0.226026 73.6292 0.143015 73.5049 0.0863806 73.3682C0.0297459 73.2315 0.000596114 73.0849 0.000596114 72.937V9.33274C-0.00431867 9.18169 0.0211982 9.03119 0.0756284 8.89021C0.130059 8.74922 0.21229 8.62062 0.317431 8.51206C0.422572 8.4035 0.548474 8.3172 0.687647 8.25828C0.826821 8.19937 0.976422 8.16905 1.12755 8.16913H14.5411C14.6982 8.15498 14.8566 8.17371 15.0061 8.22414C15.1556 8.27458 15.293 8.3556 15.4095 8.46205C15.5259 8.5685 15.6189 8.69805 15.6826 8.84243C15.7462 8.98682 15.7791 9.14288 15.7791 9.30067C15.7791 9.45846 15.7462 9.61452 15.6826 9.7589C15.6189 9.90329 15.5259 10.0328 15.4095 10.1393C15.293 10.2457 15.1556 10.3268 15.0061 10.3772C14.8566 10.4276 14.6982 10.4464 14.5411 10.4322H2.26367V71.8192H51.1259C52.3676 71.8192 53.5584 71.3259 54.4365 70.4479C55.3145 69.5698 55.8078 68.379 55.8078 67.1373V40.6126C55.7936 40.4554 55.8123 40.2971 55.8628 40.1476C55.9132 39.998 55.9942 39.8607 56.1007 39.7442C56.2071 39.6277 56.3367 39.5347 56.4811 39.4711C56.6254 39.4074 56.7815 39.3746 56.9393 39.3746C57.0971 39.3746 57.2531 39.4074 57.3975 39.4711C57.5419 39.5347 57.6715 39.6277 57.7779 39.7442C57.8844 39.8607 57.9654 39.998 58.0158 40.1476C58.0662 40.2971 58.085 40.4554 58.0708 40.6126V67.1189C58.0684 68.9601 57.3359 70.7252 56.034 72.0271C54.7321 73.329 52.967 74.0615 51.1259 74.0639Z" fill="#123149"/>
<path d="M12.9559 41.657H12.9101C12.7288 41.6543 12.5509 41.6079 12.3914 41.5218C12.2319 41.4356 12.0955 41.3123 11.9939 41.1622L9.52007 37.5706C9.40235 37.4534 9.31176 37.3118 9.25469 37.1558C9.19762 36.9998 9.17546 36.8332 9.18977 36.6677C9.20408 36.5022 9.25451 36.3418 9.3375 36.1979C9.4205 36.054 9.53405 35.93 9.67014 35.8348C9.80624 35.7395 9.96157 35.6753 10.1252 35.6465C10.2888 35.6178 10.4567 35.6253 10.6171 35.6685C10.7776 35.7117 10.9265 35.7896 11.0536 35.8966C11.1806 36.0036 11.2827 36.1372 11.3525 36.2879L12.9651 38.6335L18.3067 32.1191C18.3964 31.9907 18.5117 31.8822 18.6454 31.8005C18.7791 31.7188 18.9282 31.6657 19.0834 31.6443C19.2386 31.623 19.3965 31.6341 19.5473 31.6767C19.698 31.7194 19.8383 31.7928 19.9593 31.8922C20.0804 31.9917 20.1795 32.1152 20.2505 32.2548C20.3216 32.3944 20.3629 32.5472 20.3721 32.7036C20.3812 32.86 20.3579 33.0166 20.3036 33.1636C20.2493 33.3105 20.1653 33.4447 20.0566 33.5576L13.8355 41.2447C13.7272 41.3727 13.5926 41.4759 13.4408 41.547C13.289 41.6182 13.1236 41.6557 12.9559 41.657Z" fill="#123149"/>
<path d="M12.9559 52.9445H12.9101C12.7293 52.9396 12.5522 52.8922 12.393 52.8063C12.2339 52.7203 12.0972 52.5982 11.9939 52.4497L9.52008 48.8673C9.4045 48.7498 9.31586 48.6086 9.26031 48.4534C9.20477 48.2982 9.18365 48.1328 9.19842 47.9687C9.21319 47.8045 9.2635 47.6456 9.34585 47.5028C9.4282 47.3601 9.54063 47.2369 9.67533 47.142C9.81003 47.047 9.96378 46.9825 10.1259 46.9529C10.288 46.9233 10.4547 46.9293 10.6142 46.9705C10.7738 47.0118 10.9225 47.0872 11.05 47.1917C11.1775 47.2961 11.2807 47.4271 11.3525 47.5754L12.9651 49.9209L18.3067 43.3974C18.495 43.1569 18.7712 43.001 19.0744 42.964C19.3777 42.9271 19.6832 43.0121 19.9238 43.2005C20.1644 43.3888 20.3203 43.6649 20.3572 43.9682C20.3942 44.2715 20.3091 44.577 20.1208 44.8176L13.8355 52.5047C13.7307 52.6387 13.5975 52.7477 13.4453 52.8238C13.2932 52.8999 13.126 52.9411 12.9559 52.9445Z" fill="#123149"/>
<path d="M12.9559 64.2327H12.9101C12.7295 64.2318 12.5518 64.1871 12.3923 64.1025C12.2327 64.018 12.096 63.896 11.9939 63.7471L9.52008 60.1646C9.4045 60.0472 9.31586 59.9059 9.26031 59.7508C9.20477 59.5956 9.18365 59.4302 9.19842 59.2661C9.21319 59.1019 9.2635 58.9429 9.34585 58.8002C9.4282 58.6574 9.54063 58.5343 9.67533 58.4393C9.81003 58.3443 9.96378 58.2798 10.1259 58.2502C10.288 58.2206 10.4547 58.2267 10.6142 58.2679C10.7738 58.3091 10.9225 58.3846 11.05 58.489C11.1775 58.5935 11.2807 58.7244 11.3525 58.8728L12.9651 61.2183L18.3067 54.6948C18.3964 54.5664 18.5117 54.4579 18.6454 54.3762C18.7791 54.2945 18.9282 54.2413 19.0834 54.22C19.2386 54.1987 19.3965 54.2097 19.5473 54.2524C19.698 54.2951 19.8383 54.3684 19.9593 54.4679C20.0804 54.5674 20.1795 54.6908 20.2505 54.8305C20.3216 54.9701 20.363 55.1229 20.3721 55.2793C20.3812 55.4357 20.3579 55.5923 20.3036 55.7393C20.2494 55.8862 20.1653 56.0204 20.0567 56.1333L13.7714 63.8204C13.671 63.9414 13.5468 64.0404 13.4065 64.1114C13.2662 64.1823 13.1129 64.2236 12.9559 64.2327Z" fill="#123149"/>
<path d="M40.3967 41.6566H24.5186C24.236 41.6312 23.9733 41.501 23.7819 41.2916C23.5905 41.0822 23.4844 40.8088 23.4844 40.5251C23.4844 40.2414 23.5905 39.968 23.7819 39.7586C23.9733 39.5492 24.236 39.419 24.5186 39.3936H40.3967C40.6792 39.419 40.942 39.5492 41.1334 39.7586C41.3248 39.968 41.4309 40.2414 41.4309 40.5251C41.4309 40.8088 41.3248 41.0822 41.1334 41.2916C40.942 41.501 40.6792 41.6312 40.3967 41.6566Z" fill="#123149"/>
<path d="M48.1295 51.9187H24.5184C24.2171 51.9187 23.9282 51.799 23.7151 51.586C23.502 51.3729 23.3823 51.0839 23.3823 50.7826C23.3823 50.4813 23.502 50.1923 23.7151 49.9792C23.9282 49.7662 24.2171 49.6465 24.5184 49.6465H48.1295C48.4308 49.6465 48.7198 49.7662 48.9329 49.9792C49.1459 50.1923 49.2656 50.4813 49.2656 50.7826C49.2656 51.0839 49.1459 51.3729 48.9329 51.586C48.7198 51.799 48.4308 51.9187 48.1295 51.9187Z" fill="#123149"/>
<path d="M48.1296 62.171H24.5186C24.236 62.1455 23.9732 62.0153 23.7819 61.8059C23.5905 61.5965 23.4844 61.3231 23.4844 61.0394C23.4844 60.7558 23.5905 60.4824 23.7819 60.273C23.9732 60.0636 24.236 59.9334 24.5186 59.9079H48.1296C48.2868 59.8937 48.4452 59.9125 48.5947 59.9629C48.7442 60.0133 48.8816 60.0944 48.998 60.2008C49.1145 60.3073 49.2075 60.4368 49.2712 60.5812C49.3348 60.7256 49.3677 60.8816 49.3677 61.0394C49.3677 61.1972 49.3348 61.3533 49.2712 61.4977C49.2075 61.6421 49.1145 61.7716 48.998 61.8781C48.8816 61.9845 48.7442 62.0655 48.5947 62.116C48.4452 62.1664 48.2868 62.1851 48.1296 62.171Z" fill="#123149"/>
</svg>
