<svg width="40" height="40" viewBox="0 0 40 40" fill="none" xmlns="http://www.w3.org/2000/svg">
<path d="M25.1986 39.2585C23.799 39.2585 22.4812 38.8018 21.3851 37.9369C20.8686 37.5024 20.3853 37.0977 20 36.6163C19.619 37.0934 19.1425 37.4939 18.6354 37.9199C17.5196 38.8009 16.201 39.2576 14.8014 39.2576C12.0747 39.2576 9.80566 37.5245 9.07092 34.9658C5.99642 34.6241 3.597 32.01 3.597 28.8464C3.597 28.5984 3.61149 28.3522 3.64132 28.1076C1.43539 27.138 0 24.9661 0 22.4883C0 21.482 0.242926 20.5022 0.707467 19.622C0.248892 18.7393 0 17.7211 0 16.7003C0 14.3725 1.33055 12.2457 3.37453 11.2071C3.32509 10.8799 3.2927 10.6013 3.2927 10.4028C3.2927 7.22117 5.7211 4.59343 8.82884 4.26113C9.63689 1.75609 12.0056 0 14.694 0C17.0892 0 18.9746 0.909144 20 2.42325C21.0254 0.909144 22.9125 0 25.3069 0C27.9961 0 30.3648 1.75694 31.172 4.26113C34.2797 4.59258 36.7073 7.22032 36.7073 10.4028C36.7073 10.6038 36.6723 10.8952 36.6255 11.2071C38.6694 12.2457 40 14.3725 40 16.7003C40 17.7202 39.7511 18.7393 39.2934 19.622C39.7571 20.503 40 21.4837 40 22.4892C40 24.9669 38.5646 27.1388 36.3595 28.1085C36.3885 28.353 36.4039 28.6001 36.4039 28.8472C36.4039 32.0109 34.0053 34.6241 30.9299 34.9667C30.1943 37.5254 27.9253 39.2585 25.1986 39.2585ZM19.9991 33.2259C20.4662 33.2259 20.8464 33.6017 20.8515 34.0686C20.8643 35.2743 21.3655 35.6943 22.4616 36.6154C23.233 37.2238 24.186 37.5544 25.1986 37.5544C27.3116 37.5544 29.0411 36.0956 29.4033 34.0073C29.4741 33.5991 29.8287 33.3009 30.2429 33.3009C32.7003 33.3009 34.6991 31.3028 34.6991 28.8472C34.6991 28.48 34.6539 28.117 34.567 27.7642C34.4562 27.322 34.7127 26.8721 35.15 26.7418C37.032 26.1794 38.2961 24.4702 38.2961 22.49C38.2961 21.6337 38.0532 20.8021 37.5921 20.0855C37.4122 19.8052 37.4122 19.4456 37.5921 19.1644C38.0464 18.4572 38.2961 17.5822 38.2961 16.7011C38.2961 14.8445 37.1258 13.1651 35.3836 12.5218C34.9991 12.3795 34.7699 11.9842 34.8381 11.5803C34.8875 11.2949 35.0026 10.6149 35.0026 10.4036C35.0026 7.9369 32.9859 5.93116 30.5063 5.93116C30.1014 5.93116 29.752 5.64657 29.6718 5.24952C29.2516 3.19521 27.4165 1.70496 25.3077 1.70496C23.164 1.70496 20.8686 2.6533 20.8515 5.31342C20.849 5.78205 20.468 6.16037 19.9991 6.16037C19.5303 6.16037 19.1493 5.7812 19.1468 5.31257C19.134 2.65245 16.8386 1.70496 14.6949 1.70496C12.5861 1.70496 10.7509 3.19606 10.3299 5.25037C10.2489 5.64657 9.90027 5.93116 9.4954 5.93116C7.01585 5.93116 4.99915 7.9369 4.99915 10.4036C4.99915 10.6089 5.11251 11.2753 5.14916 11.4951L5.16451 11.5811C5.2327 11.985 5.00341 12.3804 4.61899 12.5218C2.8776 13.1651 1.70644 14.8445 1.70644 16.7011C1.70644 17.583 1.95619 18.4581 2.4105 19.1644C2.59035 19.4456 2.59035 19.8052 2.4105 20.0864C1.94937 20.8021 1.70644 21.6328 1.70644 22.49C1.70644 24.4702 2.97136 26.1786 4.85339 26.7418C5.28981 26.8721 5.54637 27.3229 5.43641 27.7642C5.34862 28.1153 5.3043 28.48 5.3043 28.8472C5.3043 31.3028 7.3031 33.3009 9.75963 33.3009C10.1739 33.3009 10.5285 33.5991 10.5992 34.0073C10.9615 36.0956 12.6909 37.5544 14.804 37.5544C15.8166 37.5544 16.7695 37.2238 17.5614 36.5992C18.6371 35.6943 19.1374 35.2743 19.1485 34.0695C19.151 33.6025 19.5303 33.2259 19.9991 33.2259Z" fill="white"/>
<path d="M24.3677 24.9321H15.6326C15.1621 24.9321 14.7803 24.5512 14.7803 24.08V15.3481C14.7803 14.8778 15.1621 14.4961 15.6326 14.4961H24.3677C24.8391 14.4961 25.2201 14.8778 25.2201 15.3481V24.08C25.2201 24.5504 24.8391 24.9321 24.3677 24.9321ZM16.485 23.228H23.5154V16.2002H16.485V23.228Z" fill="white"/>
<path d="M19.9998 15.9726C19.5293 15.9726 19.1475 15.5909 19.1475 15.1205V13.6397C19.1475 13.1693 19.5293 12.7876 19.9998 12.7876C20.4703 12.7876 20.8522 13.1693 20.8522 13.6397V15.1214C20.8522 15.5917 20.4703 15.9726 19.9998 15.9726Z" fill="white"/>
<path d="M17.0321 15.9726C16.5615 15.9726 16.1797 15.5909 16.1797 15.1205V13.6397C16.1797 13.1693 16.5615 12.7876 17.0321 12.7876C17.5026 12.7876 17.8844 13.1693 17.8844 13.6397V15.1214C17.8844 15.5917 17.5026 15.9726 17.0321 15.9726Z" fill="white"/>
<path d="M22.9681 15.9726C22.4967 15.9726 22.1157 15.5909 22.1157 15.1205V13.6397C22.1157 13.1693 22.4967 12.7876 22.9681 12.7876C23.4395 12.7876 23.8205 13.1693 23.8205 13.6397V15.1214C23.8205 15.5917 23.4395 15.9726 22.9681 15.9726Z" fill="white"/>
<path d="M19.9998 26.6404C19.5293 26.6404 19.1475 26.2595 19.1475 25.7883V24.2452C19.1475 23.7741 19.5293 23.3932 19.9998 23.3932C20.4703 23.3932 20.8522 23.7741 20.8522 24.2452V25.7883C20.8522 26.2587 20.4703 26.6404 19.9998 26.6404Z" fill="white"/>
<path d="M17.0321 26.6404C16.5615 26.6404 16.1797 26.2595 16.1797 25.7883V24.2452C16.1797 23.7741 16.5615 23.3932 17.0321 23.3932C17.5026 23.3932 17.8844 23.7741 17.8844 24.2452V25.7883C17.8844 26.2587 17.5026 26.6404 17.0321 26.6404Z" fill="white"/>
<path d="M22.9681 26.6404C22.4967 26.6404 22.1157 26.2595 22.1157 25.7883V24.2452C22.1157 23.7741 22.4967 23.3932 22.9681 23.3932C23.4395 23.3932 23.8205 23.7741 23.8205 24.2452V25.7883C23.8205 26.2587 23.4395 26.6404 22.9681 26.6404Z" fill="white"/>
<path d="M11.0892 13.0774C9.7748 13.0774 8.70508 12.0081 8.70508 10.6942C8.70508 9.38037 9.7748 8.31104 11.0892 8.31104C12.4035 8.31104 13.4732 9.38037 13.4732 10.6942C13.4732 12.0081 12.4035 13.0774 11.0892 13.0774ZM11.0892 10.0151C10.715 10.0151 10.4098 10.3193 10.4098 10.6942C10.4098 11.0691 10.7141 11.3733 11.0892 11.3733C11.4642 11.3733 11.7685 11.0691 11.7685 10.6942C11.7685 10.3193 11.4642 10.0151 11.0892 10.0151Z" fill="white"/>
<path d="M12.6406 17.6879H11.0902C10.6197 17.6879 10.2378 17.3061 10.2378 16.8358V12.5619C10.2378 12.0916 10.6197 11.7098 11.0902 11.7098C11.5607 11.7098 11.9425 12.0916 11.9425 12.5619V15.9838H12.6406C13.1111 15.9838 13.493 16.3655 13.493 16.8358C13.493 17.3061 13.1111 17.6879 12.6406 17.6879Z" fill="white"/>
<path d="M11.9416 26.8653H10.2368V22.5914C10.2368 22.1202 10.6187 21.7394 11.0892 21.7394H15.5096V23.4435H11.9416V26.8653Z" fill="white"/>
<path d="M11.0892 31.1154C9.7748 31.1154 8.70508 30.0461 8.70508 28.7322C8.70508 27.4183 9.7748 26.3499 11.0892 26.3499C12.4035 26.3499 13.4732 27.4183 13.4732 28.7322C13.4732 30.0461 12.4035 31.1154 11.0892 31.1154ZM11.0892 28.0548C10.715 28.0548 10.4098 28.359 10.4098 28.7331C10.4098 29.1071 10.7141 29.4121 11.0892 29.4121C11.4642 29.4121 11.7685 29.108 11.7685 28.7331C11.7685 28.359 11.4642 28.0548 11.0892 28.0548Z" fill="white"/>
<path d="M28.9096 13.0774C27.5952 13.0774 26.5264 12.0081 26.5264 10.6942C26.5264 9.38037 27.5952 8.31104 28.9096 8.31104C30.2239 8.31104 31.2937 9.38037 31.2937 10.6942C31.2937 12.0081 30.2239 13.0774 28.9096 13.0774ZM28.9096 10.0151C28.5363 10.0151 28.2311 10.3193 28.2311 10.6942C28.2311 11.0691 28.5354 11.3733 28.9096 11.3733C29.2838 11.3733 29.5889 11.0691 29.5889 10.6942C29.5889 10.3193 29.2846 10.0151 28.9096 10.0151Z" fill="white"/>
<path d="M28.9096 17.6879H24.4893V15.9837H28.0573V12.5619H29.762V16.8358C29.762 17.3061 29.381 17.6879 28.9096 17.6879Z" fill="white"/>
<path d="M28.9302 27.7174C28.4588 27.7174 28.0778 27.3365 28.0778 26.8653V23.4435H27.3797C26.9084 23.4435 26.5273 23.0626 26.5273 22.5914C26.5273 22.1202 26.9084 21.7394 27.3797 21.7394H28.9302C29.4015 21.7394 29.7825 22.1202 29.7825 22.5914V26.8653C29.7825 27.3365 29.4007 27.7174 28.9302 27.7174Z" fill="white"/>
<path d="M28.9096 31.1154C27.5952 31.1154 26.5264 30.0461 26.5264 28.7322C26.5264 27.4183 27.5952 26.3499 28.9096 26.3499C30.2239 26.3499 31.2937 27.4183 31.2937 28.7322C31.2937 30.0461 30.2239 31.1154 28.9096 31.1154ZM28.9096 28.0548C28.5363 28.0548 28.2311 28.359 28.2311 28.7331C28.2311 29.1071 28.5354 29.4121 28.9096 29.4121C29.2838 29.4121 29.5889 29.108 29.5889 28.7331C29.5889 28.359 29.2846 28.0548 28.9096 28.0548Z" fill="white"/>
<path d="M7.93046 22.0972C6.61611 22.0972 5.54639 21.0279 5.54639 19.714C5.54639 18.4001 6.61611 17.3308 7.93046 17.3308C9.24482 17.3308 10.3137 18.4001 10.3137 19.714C10.3137 21.0279 9.24482 22.0972 7.93046 22.0972ZM7.93046 19.0349C7.55627 19.0349 7.25113 19.3391 7.25113 19.714C7.25113 20.0889 7.55542 20.3931 7.93046 20.3931C8.30465 20.3931 8.60895 20.0889 8.60895 19.714C8.60895 19.3391 8.30465 19.0349 7.93046 19.0349Z" fill="white"/>
<path d="M9.7793 18.8619H15.3879V20.5661H9.7793V18.8619Z" fill="white"/>
<path d="M32.0696 22.0972C30.7553 22.0972 29.6855 21.0279 29.6855 19.714C29.6855 18.4001 30.7553 17.3308 32.0696 17.3308C33.384 17.3308 34.4537 18.4001 34.4537 19.714C34.4537 21.0279 33.384 22.0972 32.0696 22.0972ZM32.0696 19.0349C31.6954 19.0349 31.3903 19.3391 31.3903 19.714C31.3903 20.0889 31.6946 20.3931 32.0696 20.3931C32.4447 20.3931 32.749 20.0889 32.749 19.714C32.749 19.3391 32.4447 19.0349 32.0696 19.0349Z" fill="white"/>
<path d="M24.4902 18.8619H30.2216V20.5661H24.4902V18.8619Z" fill="white"/>
<path d="M19.9998 10.6226C18.6854 10.6226 17.6157 9.55327 17.6157 8.2394C17.6157 6.92553 18.6854 5.85706 19.9998 5.85706C21.3142 5.85706 22.3839 6.92553 22.3839 8.2394C22.3839 9.55327 21.3142 10.6226 19.9998 10.6226ZM19.9998 7.56117C19.6256 7.56117 19.3205 7.86535 19.3205 8.2394C19.3205 8.61346 19.6248 8.91849 19.9998 8.91849C20.3748 8.91849 20.6791 8.61431 20.6791 8.2394C20.6791 7.86535 20.374 7.56117 19.9998 7.56117Z" fill="white"/>
<path d="M19.9998 33.4023C18.6854 33.4023 17.6157 32.3329 17.6157 31.0191C17.6157 29.7052 18.6854 28.6367 19.9998 28.6367C21.3142 28.6367 22.3839 29.7052 22.3839 31.0191C22.3839 32.3329 21.3142 33.4023 19.9998 33.4023ZM19.9998 30.3408C19.6256 30.3408 19.3205 30.645 19.3205 31.0191C19.3205 31.3931 19.6248 31.6982 19.9998 31.6982C20.3748 31.6982 20.6791 31.394 20.6791 31.0191C20.6791 30.6459 20.374 30.3408 19.9998 30.3408Z" fill="white"/>
<path d="M19.9998 7.31066C19.5293 7.31066 19.1475 6.92894 19.1475 6.4586V5.3407C19.1475 4.87037 19.5293 4.48865 19.9998 4.48865C20.4703 4.48865 20.8522 4.87037 20.8522 5.3407V6.45775C20.8522 6.92894 20.4703 7.31066 19.9998 7.31066Z" fill="white"/>
<path d="M19.9998 34.9301C19.5293 34.9301 19.1475 34.5492 19.1475 34.078V32.8008C19.1475 32.3296 19.5293 31.9487 19.9998 31.9487C20.4703 31.9487 20.8522 32.3296 20.8522 32.8008V34.078C20.8522 34.5492 20.4703 34.9301 19.9998 34.9301Z" fill="white"/>
</svg>
