<svg width="70" height="69" viewBox="0 0 70 69" fill="none" xmlns="http://www.w3.org/2000/svg"><path d="M14.1628 62.0063C14.2168 62.0063 14.2709 62.002 14.3252 61.9933C14.6499 61.9412 14.93 61.7365 15.0782 61.4428L22.1604 47.4121C22.4155 46.9065 22.2126 46.2899 21.7072 46.0346C21.2017 45.7792 20.5849 45.9824 20.3297 46.488L13.886 59.2537L8.87503 54.2425C8.47458 53.8421 7.82543 53.8421 7.42485 54.2425C7.0244 54.643 7.0244 55.2923 7.42485 55.6926L13.4379 61.7058C13.6315 61.8998 13.8929 62.0063 14.1628 62.0063Z" fill="#0ECB78"/><path d="M60.2002 29.1221H32.5581C31.9917 29.1221 31.5327 29.5812 31.5327 30.1475C31.5327 30.7138 31.9917 31.1729 32.5581 31.1729H60.2002C60.7666 31.1729 61.2256 30.7138 61.2256 30.1475C61.2256 29.5812 60.7666 29.1221 60.2002 29.1221Z" fill="currentColor"/><path d="M60.2001 35.5269H56.1655C55.5991 35.5269 55.1401 35.986 55.1401 36.5522C55.1401 37.1185 55.5991 37.5776 56.1655 37.5776H60.2001C60.7665 37.5776 61.2255 37.1185 61.2255 36.5522C61.2255 35.986 60.7665 35.5269 60.2001 35.5269Z" fill="currentColor"/><path d="M52.0641 35.5269H25.4189C24.8525 35.5269 24.3936 35.986 24.3936 36.5522C24.3936 37.1185 24.8525 37.5776 25.4189 37.5776H52.0641C52.6305 37.5776 53.0895 37.1185 53.0895 36.5522C53.0895 35.986 52.6305 35.5269 52.0641 35.5269Z" fill="currentColor"/><path d="M28.1945 18.7622C28.7227 18.9639 29.316 18.6982 29.5176 18.169L30.081 16.6896H33.9232L34.4805 18.166C34.6354 18.5767 35.0256 18.8296 35.44 18.8296C35.5603 18.8296 35.6827 18.8083 35.8019 18.7633C36.3317 18.5633 36.5991 17.9717 36.3991 17.4419L33.1564 8.84969C33.153 8.84025 33.1491 8.83096 33.1455 8.82166C32.956 8.36119 32.5122 8.06396 32.0145 8.06396C32.0142 8.06396 32.0138 8.06396 32.0134 8.06396C31.5151 8.06438 31.0713 8.3627 30.8826 8.82385C30.8795 8.83164 30.8763 8.83943 30.8735 8.84723L27.6011 17.439C27.3996 17.9683 27.6652 18.5607 28.1945 18.7622ZM32.011 11.6225L33.1493 14.6388H30.8621L32.011 11.6225Z" fill="#0ECB78"/><path d="M37.7376 18.642C37.9171 18.7685 38.1231 18.8292 38.3272 18.8292C38.6495 18.8292 38.9668 18.6777 39.1666 18.3943L41.6153 14.9182L44.0603 18.3937C44.2599 18.6776 44.5772 18.8292 44.8999 18.8292C45.1036 18.8292 45.3095 18.7686 45.489 18.6424C45.9522 18.3166 46.0635 17.6769 45.7375 17.2137L42.8699 13.1373L45.3058 9.67956C45.6318 9.21663 45.5208 8.57692 45.0579 8.25071C44.5946 7.9245 43.9554 8.03552 43.6291 8.49845L41.6164 11.3555L39.6069 8.49899C39.2813 8.03593 38.642 7.92437 38.1783 8.2503C37.7151 8.5761 37.6039 9.21581 37.9298 9.67901L40.3619 13.1364L37.49 17.2132C37.1638 17.6762 37.2748 18.3159 37.7376 18.642Z" fill="#0ECB78"/><path d="M25.9195 17.8039V10.1147H27.3102C27.8766 10.1147 28.3356 9.65565 28.3356 9.08936C28.3356 8.52307 27.8766 8.06396 27.3102 8.06396H22.4976C21.9311 8.06396 21.4722 8.52307 21.4722 9.08936C21.4722 9.65565 21.9311 10.1147 22.4976 10.1147H23.8687V17.8039C23.8687 18.3702 24.3277 18.8293 24.8941 18.8293C25.4605 18.8293 25.9195 18.3702 25.9195 17.8039Z" fill="#0ECB78"/><path d="M65.3904 14.4043L55.5957 4.60975C52.6232 1.63721 48.6706 0 44.4664 0H20.0621C17.612 0 15.6187 1.99336 15.6187 4.44336V37.9862C12.2181 37.9451 8.89367 39.0231 6.17625 41.0655C5.72344 41.4058 5.63225 42.0485 5.97268 42.5012C6.31297 42.954 6.95582 43.0451 7.40836 42.7049C9.95762 40.7888 13.1242 39.8508 16.3256 40.0646C19.5562 40.28 22.5981 41.6608 24.8906 43.9528C30.1064 49.1701 30.1064 57.658 24.8907 62.8737C19.6735 68.0897 11.1854 68.0897 5.96967 62.8738C3.67744 60.5816 2.29631 57.5406 2.0807 54.311C1.86701 51.1108 2.80449 47.944 4.72047 45.3942C5.06063 44.9414 4.9693 44.2987 4.51662 43.9585C4.06408 43.6184 3.4211 43.7097 3.08094 44.1624C0.869922 47.1048 -0.211933 50.7575 0.0344338 54.4477C0.283125 58.1732 1.87604 61.6805 4.51949 64.324C7.52758 67.3321 11.4779 68.8359 15.4297 68.8356C18.6168 68.8353 21.8047 67.8557 24.4975 65.8985H65.5566C68.0068 65.8985 70 63.9051 70 61.4551V25.5336C70 21.3294 68.3629 17.377 65.3904 14.4043ZM63.9402 15.8545C65.435 17.3492 66.5405 19.1293 67.2081 21.0714C65.5319 19.4288 63.239 18.4134 60.7123 18.4134H53.9793C52.6601 18.4134 51.5867 17.34 51.5867 16.0208V9.28799C51.5867 6.76129 50.5713 4.46824 48.9286 2.79207C50.8709 3.45953 52.6508 4.56504 54.1455 6.05992L63.9402 15.8545ZM67.9492 61.4551C67.9492 62.7743 66.8758 63.8477 65.5566 63.8477H26.7959C28.6825 61.7947 29.9113 59.3506 30.4814 56.7877H50.0186C50.585 56.7877 51.0439 56.3286 51.0439 55.7623C51.0439 55.196 50.585 54.7369 50.0186 54.7369H30.7948C30.9187 53.2844 30.8384 51.8177 30.5535 50.3837H60.2C60.7664 50.3837 61.2254 49.9246 61.2254 49.3584C61.2254 48.7921 60.7664 48.333 60.2 48.333H29.9975C29.463 46.7923 28.678 45.3201 27.6419 43.9805H60.2003C60.7667 43.9805 61.2257 43.5214 61.2257 42.9551C61.2257 42.3888 60.7667 41.9297 60.2003 41.9297H25.7343C23.4728 39.9006 20.6675 38.5868 17.6695 38.148V4.44336C17.6695 3.12416 18.7429 2.05078 20.0621 2.05078L42.2989 2.05092C46.2894 2.05092 49.5359 5.29744 49.5359 9.28799V16.0208C49.5359 18.4708 51.5292 20.4642 53.9793 20.4642H60.7122C64.7027 20.4642 67.9492 23.7107 67.9492 27.7013V61.4551Z" fill="currentColor"/></svg>