<svg width="70" height="43" viewBox="0 0 70 43" fill="none" xmlns="http://www.w3.org/2000/svg"><path d="M17.5 26.3666C16.856 26.3666 16.3333 25.8439 16.3333 25.1999V20.9742C16.3333 20.6079 16.5037 20.2649 16.7953 20.0456C17.9853 19.1449 18.6667 17.7916 18.6667 16.3333V12.8333C18.6667 10.2596 16.5737 8.16658 14 8.16658C11.4263 8.16658 9.33333 10.2596 9.33333 12.8333V16.3333C9.33333 17.7916 10.0147 19.1449 11.2047 20.0456C11.4963 20.2649 11.6667 20.6103 11.6667 20.9766V25.2022C11.6667 25.8463 11.144 26.3689 10.5 26.3689C9.856 26.3689 9.33333 25.8439 9.33333 25.1999V21.5249C7.84233 20.1926 7 18.3306 7 16.3333V12.8333C7 8.97392 10.1407 5.83325 14 5.83325C17.8593 5.83325 21 8.97392 21 12.8333V16.3333C21 18.3306 20.1577 20.1903 18.6667 21.5249V25.1999C18.6667 25.8439 18.144 26.3666 17.5 26.3666Z" fill="white"/><path d="M15.1735 23.2167C14.6321 23.2167 14.1468 22.8364 14.0325 22.2857C13.9041 21.6534 14.3101 21.0374 14.9425 20.9091C17.0985 20.4634 18.6665 18.5407 18.6665 16.3334C18.6665 15.6894 19.1891 15.1667 19.8331 15.1667C20.4771 15.1667 20.9998 15.6894 20.9998 16.3334C20.9998 19.6421 18.6478 22.5261 15.4091 23.1911C15.3298 23.2074 15.2528 23.2167 15.1735 23.2167Z" fill="white"/><path d="M21.8728 28.196C21.7188 28.196 21.5625 28.1656 21.4131 28.1003L17.0405 26.222C16.4478 25.9676 16.1748 25.2816 16.4291 24.689C16.6811 24.094 17.3671 23.8256 17.9598 24.0776L22.3325 25.956C22.9251 26.2103 23.1981 26.8963 22.9438 27.489C22.7548 27.9323 22.3231 28.196 21.8728 28.196Z" fill="white"/><path d="M7 42.3196C6.839 42.3196 6.67333 42.287 6.517 42.2146L2.051 40.1846C0.805 39.6153 0 38.3646 0 36.9973V33.7633C0 30.492 1.93667 27.552 4.93267 26.2733L10.0357 24.059C10.633 23.8023 11.3143 24.073 11.571 24.6633C11.8253 25.2536 11.5547 25.942 10.9643 26.1986L5.85667 28.4153C3.71467 29.3323 2.33333 31.43 2.33333 33.7633V36.9973C2.33333 37.4523 2.60167 37.8723 3.017 38.0613L7.483 40.0913C8.06867 40.3573 8.32767 41.0503 8.06167 41.636C7.86567 42.0653 7.441 42.3196 7 42.3196Z" fill="white"/><path d="M18.5243 14.9566C16.2003 14.9566 13.979 14.1563 12.1007 12.6419C11.6013 12.2383 11.522 11.5056 11.9233 11.0039C12.3317 10.5023 13.0667 10.4253 13.5637 10.8289C15.0617 12.0353 16.8397 12.6863 18.662 12.6233C18.55 10.1453 16.5013 8.16658 14 8.16658C11.4263 8.16658 9.33333 10.2596 9.33333 12.8333V13.6966C9.33333 14.3406 8.81067 14.8633 8.16667 14.8633C7.52267 14.8633 7 14.3429 7 13.6966V12.8333C7 8.97392 10.1407 5.83325 14 5.83325C17.8593 5.83325 21 8.97392 21 12.8333V13.6499C21 14.2239 20.5823 14.7116 20.0177 14.8026C19.4787 14.8889 19.012 14.9566 18.5243 14.9566Z" fill="white"/><path d="M59.5 26.3667C58.856 26.3667 58.3333 25.844 58.3333 25.2V20.9744C58.3333 20.608 58.5037 20.265 58.7953 20.0457C59.9853 19.145 60.6667 17.7917 60.6667 16.3334V12.8334C60.6667 10.2597 58.5737 8.16669 56 8.16669C53.4263 8.16669 51.3333 10.2597 51.3333 12.8334V16.3334C51.3333 17.7917 52.0147 19.145 53.2047 20.0457C53.4963 20.265 53.6667 20.6104 53.6667 20.9767V25.2024C53.6667 25.8464 53.144 26.369 52.5 26.369C51.856 26.369 51.3333 25.8464 51.3333 25.2024V21.5274C49.8423 20.195 49 18.333 49 16.3357V12.8357C49 8.97636 52.1407 5.83569 56 5.83569C59.8593 5.83569 63 8.97636 63 12.8357V16.3357C63 18.333 62.1577 20.1927 60.6667 21.5274V25.2024C60.6667 25.844 60.144 26.3667 59.5 26.3667Z" fill="white"/><path d="M57.1735 23.2167C56.6321 23.2167 56.1468 22.8364 56.0325 22.2857C55.9041 21.6534 56.3101 21.0374 56.9425 20.9091C59.0985 20.4634 60.6665 18.5407 60.6665 16.3334C60.6665 15.6894 61.1891 15.1667 61.8331 15.1667C62.4771 15.1667 62.9998 15.6894 62.9998 16.3334C62.9998 19.6421 60.6478 22.5261 57.4091 23.1911C57.3298 23.2074 57.2528 23.2167 57.1735 23.2167Z" fill="white"/><path d="M48.4703 28.049C48.02 28.049 47.5883 27.7853 47.3993 27.342C47.145 26.7516 47.418 26.0633 48.0107 25.809L52.0403 24.0776C52.6283 23.828 53.3167 24.094 53.571 24.689C53.8253 25.2793 53.5523 25.9676 52.9597 26.222L48.93 27.9533C48.7807 28.0186 48.6267 28.049 48.4703 28.049Z" fill="white"/><path d="M63.0001 42.3196C62.5591 42.3196 62.1344 42.0653 61.9384 41.636C61.6724 41.0503 61.9314 40.3573 62.517 40.0913L66.9831 38.0613C67.3984 37.8723 67.6667 37.4546 67.6667 36.9973V33.7633C67.6667 31.43 66.2854 29.3323 64.1504 28.42L59.0357 26.1986C58.4454 25.942 58.1747 25.256 58.4291 24.6633C58.6857 24.0706 59.3624 23.8 59.9644 24.059L65.0721 26.2756C68.0634 27.552 70 30.492 70 33.7633V36.9973C70 38.3646 69.1951 39.6153 67.9491 40.1846L63.4831 42.2146C63.3267 42.2846 63.1611 42.3196 63.0001 42.3196Z" fill="white"/><path d="M38.0566 11.4707C34.7386 11.4707 31.2853 10.3017 29.3813 8.58905C28.9006 8.15738 28.861 7.42005 29.2926 6.94172C29.7243 6.46338 30.4686 6.42371 30.94 6.85538C33.2406 8.92271 38.752 10.003 41.909 8.30905C42.476 8.00338 43.1853 8.21572 43.4886 8.78505C43.7943 9.35438 43.5796 10.059 43.0126 10.3647C41.573 11.1324 39.8346 11.4707 38.0566 11.4707Z" fill="white"/><path d="M34.9835 32.6667C31.1125 32.6667 29.0941 29.6474 28.5668 28.049C28.3638 27.4354 28.6975 26.7774 29.3088 26.5744C29.9201 26.3737 30.5758 26.705 30.7788 27.3117C30.8278 27.4517 31.8615 30.331 34.9835 30.331C38.1311 30.331 39.2395 27.363 39.2885 27.237C39.5055 26.6327 40.1821 26.3177 40.7771 26.5324C41.3815 26.747 41.7011 27.4074 41.4888 28.014C41.4211 28.2054 39.8088 32.6667 34.9835 32.6667Z" fill="white"/><path d="M57.1667 42.0001C56.5227 42.0001 56 41.4774 56 40.8334V40.1824C56 36.7221 53.8183 33.6281 50.5727 32.4871L40.8403 29.0337C39.4403 28.5461 38.5 27.2207 38.5 25.7391V22.8691C38.5 22.2251 39.0227 21.7024 39.6667 21.7024C40.3107 21.7024 40.8333 22.2251 40.8333 22.8691V25.7391C40.8333 26.2291 41.1483 26.6677 41.615 26.8311L51.3497 30.2867C55.5263 31.7544 58.3333 35.7327 58.3333 40.1824V40.8357C58.3333 41.4797 57.8107 42.0001 57.1667 42.0001Z" fill="white"/><path d="M12.8332 42.0001C12.1892 42.0001 11.6665 41.4774 11.6665 40.8334V40.2034C11.6665 39.4754 11.7435 38.7451 11.8952 38.0241C12.6465 34.4704 15.2458 31.5071 18.6712 30.2844L28.3825 26.8777C28.8515 26.7144 29.1665 26.2734 29.1665 25.7834V22.8667C29.1665 22.2227 29.6892 21.7001 30.3332 21.7001C30.9772 21.7001 31.4998 22.2227 31.4998 22.8667V25.7834C31.4998 27.2627 30.5595 28.5881 29.1548 29.0804L19.4505 32.4847C16.7835 33.4344 14.7628 35.7421 14.1772 38.5071C14.0582 39.0671 13.9998 39.6387 13.9998 40.2034V40.8334C13.9998 41.4797 13.4772 42.0001 12.8332 42.0001Z" fill="white"/><path d="M34.9998 25.6667C34.3558 25.6667 33.8332 25.144 33.8332 24.5C33.8332 23.856 34.3558 23.3333 34.9998 23.3333C37.4218 23.3333 41.9998 21.14 41.9998 12.8333V9.33333C41.9998 5.474 38.8592 2.33333 34.9998 2.33333C31.1405 2.33333 27.9998 5.474 27.9998 9.33333V12.8333C27.9998 16.856 29.0755 19.9337 31.1078 21.7327C31.5908 22.1597 31.6375 22.897 31.2082 23.38C30.7765 23.8653 30.0415 23.905 29.5632 23.4803C27.7852 21.9077 25.6665 18.7857 25.6665 12.8333V9.33333C25.6665 4.186 29.8525 0 34.9998 0C40.1472 0 44.3332 4.186 44.3332 9.33333V12.8333C44.3332 22.9857 38.2292 25.6667 34.9998 25.6667Z" fill="white"/></svg>