<svg width="60" height="60" viewBox="0 0 60 60" fill="none" xmlns="http://www.w3.org/2000/svg">
<g clip-path="url(#clip0_84_331)">
<path d="M30 60C46.5685 60 60 46.5685 60 30C60 13.4315 46.5685 0 30 0C13.4315 0 0 13.4315 0 30C0 46.5685 13.4315 60 30 60Z" fill="#3A559F"/>
<path d="M39.5048 26.4477L38.9014 31.6739C38.8763 31.9123 38.7646 32.1333 38.5874 32.2948C38.4101 32.4563 38.1798 32.5471 37.94 32.55H32.4855L32.4582 48.0443C32.46 48.2279 32.3895 48.4049 32.262 48.5369C32.1344 48.669 31.9599 48.7455 31.7764 48.75H26.2502C26.1584 48.7501 26.0674 48.7316 25.9829 48.6956C25.8983 48.6597 25.8219 48.607 25.7582 48.5408C25.6945 48.4745 25.6449 48.3961 25.6123 48.3102C25.5797 48.2243 25.5647 48.1327 25.5684 48.0409V32.55H21.4775C21.349 32.5487 21.222 32.522 21.1039 32.4716C20.9857 32.4212 20.8785 32.348 20.7886 32.2562C20.6987 32.1644 20.6278 32.0558 20.5799 31.9366C20.5319 31.8173 20.508 31.6899 20.5093 31.5614L20.4889 26.3352C20.4871 26.2063 20.5107 26.0783 20.5584 25.9584C20.606 25.8386 20.6769 25.7294 20.7668 25.637C20.8567 25.5445 20.9639 25.4707 21.0823 25.4197C21.2008 25.3687 21.3281 25.3416 21.457 25.3398H25.5684V20.2943C25.5684 14.4375 29.0457 11.25 34.1457 11.25H38.3252C38.4545 11.2513 38.5822 11.2782 38.701 11.329C38.8198 11.3798 38.9275 11.4535 39.0177 11.546C39.108 11.6385 39.1791 11.7479 39.227 11.8679C39.2749 11.9879 39.2986 12.1162 39.2968 12.2455V16.6432C39.2986 16.7724 39.2749 16.9007 39.227 17.0207C39.1791 17.1408 39.108 17.2502 39.0177 17.3426C38.9275 17.4351 38.8198 17.5089 38.701 17.5597C38.5822 17.6105 38.4545 17.6373 38.3252 17.6386H35.7616C32.99 17.6386 32.4514 19.0023 32.4514 20.9727V25.3398H38.5434C38.682 25.3415 38.8186 25.3726 38.9443 25.4309C39.0699 25.4892 39.1819 25.5734 39.2727 25.6781C39.3635 25.7827 39.4311 25.9054 39.4711 26.038C39.5111 26.1707 39.5226 26.3103 39.5048 26.4477Z" fill="white"/>
</g>
<defs>
<clipPath id="clip0_84_331">
<rect width="60" height="60" fill="white"/>
</clipPath>
</defs>
</svg>
