<svg width="51" height="57" viewBox="0 0 51 57" fill="none" xmlns="http://www.w3.org/2000/svg">
<mask id="path-1-inside-1_6_90" fill="white">
<path d="M47.2327 43.0166C48.9866 44.3598 49.3373 46.8954 47.7587 48.4408C44.4853 51.6456 40.4618 54.0158 36.0278 55.3185C30.3082 56.9988 24.2024 56.8155 18.5939 54.7953C12.9854 52.7751 8.1652 49.0226 4.83094 44.081C1.49667 39.1394 -0.178701 33.2651 0.0472875 27.3081C0.273276 21.3511 2.3889 15.6206 6.08798 10.9458C9.78706 6.27105 14.8777 2.89458 20.6231 1.30507C26.3686 -0.284432 32.4708 -0.00451728 38.0466 2.10431C42.3691 3.73915 46.2015 6.40741 49.2227 9.85095C50.6796 11.5116 50.1379 14.0133 48.2872 15.2197L32.8487 25.2845C30.5364 26.7919 30.4097 30.1328 32.6011 31.811L47.2327 43.0166Z"/>
</mask>
<path d="M47.2327 43.0166C48.9866 44.3598 49.3373 46.8954 47.7587 48.4408C44.4853 51.6456 40.4618 54.0158 36.0278 55.3185C30.3082 56.9988 24.2024 56.8155 18.5939 54.7953C12.9854 52.7751 8.1652 49.0226 4.83094 44.081C1.49667 39.1394 -0.178701 33.2651 0.0472875 27.3081C0.273276 21.3511 2.3889 15.6206 6.08798 10.9458C9.78706 6.27105 14.8777 2.89458 20.6231 1.30507C26.3686 -0.284432 32.4708 -0.00451728 38.0466 2.10431C42.3691 3.73915 46.2015 6.40741 49.2227 9.85095C50.6796 11.5116 50.1379 14.0133 48.2872 15.2197L32.8487 25.2845C30.5364 26.7919 30.4097 30.1328 32.6011 31.811L47.2327 43.0166Z" stroke="#133249" stroke-width="4" mask="url(#path-1-inside-1_6_90)"/>
</svg>
