<svg width="70" height="44" viewBox="0 0 70 44" fill="none" xmlns="http://www.w3.org/2000/svg">
<path d="M9.71406 32.9663C17.6444 39.6727 26.3885 43.2173 35 43.2173C43.6121 43.2173 52.3556 39.6727 60.2859 32.9663C66.2279 27.9416 69.6007 22.9715 69.741 22.7623C70.0863 22.2487 70.0863 21.577 69.741 21.0634C69.6007 20.8547 66.2279 15.8841 60.2859 10.8594C52.3556 4.153 43.6121 0.608398 35 0.608398C26.3885 0.608398 17.6444 4.153 9.71406 10.8594C3.77271 15.8841 0.399904 20.8542 0.259024 21.0634C-0.0863412 21.577 -0.0863412 22.2487 0.259024 22.7623C0.399904 22.9715 3.77271 27.9416 9.71406 32.9663ZM11.6792 13.1836C16.8211 8.83533 25.0409 3.65189 35 3.65189C44.9288 3.65189 53.1272 8.80561 58.2566 13.1289C62.4931 16.7003 65.4022 20.3156 66.6018 21.914C65.4117 23.5012 62.5347 27.0784 58.3208 30.6421C53.1789 34.9903 44.9591 40.1738 35 40.1738C25.0712 40.1738 16.8728 35.0201 11.744 30.6968C7.50693 27.1254 4.59719 23.5095 3.39881 21.9122C4.58827 20.3245 7.46532 16.7472 11.6792 13.1836Z" fill="#123149"/>
<path d="M34.9999 35.6082C42.5985 35.6082 48.6956 29.441 48.6956 21.9125C48.6956 14.3608 42.5516 8.2168 34.9999 8.2168C33.4009 8.2168 31.6651 8.50985 30.0982 9.12033C29.3148 9.42468 28.9266 10.3068 29.2309 11.0903C29.5175 11.8274 30.3176 12.2958 31.3483 11.9029C32.5075 11.4689 33.8057 11.2603 34.9999 11.2603C40.8735 11.2603 45.6521 16.0389 45.6521 21.9125C45.6521 27.7689 40.9038 32.5647 34.9999 32.5647C29.1263 32.5647 24.3477 27.7861 24.3477 21.9125C24.3477 21.2022 24.4107 20.6559 24.5236 19.9699C24.68 19.1442 24.1373 18.353 23.3116 18.1955C22.4883 18.0398 21.6894 18.5849 21.5319 19.4099C21.3761 20.2362 21.3042 21.1088 21.3042 21.9125C21.3042 29.4642 27.4482 35.6082 34.9999 35.6082Z" fill="#123149"/>
<path d="M41.0871 21.9127C41.0871 18.5565 38.3562 15.8257 35.0001 15.8257C31.6439 15.8257 28.9131 18.5565 28.9131 21.9127C28.9131 25.2688 31.6439 27.9996 35.0001 27.9996C38.3562 27.9996 41.0871 25.2688 41.0871 21.9127ZM31.9566 21.9127C31.9566 20.2346 33.322 18.8692 35.0001 18.8692C36.6781 18.8692 38.0436 20.2346 38.0436 21.9127C38.0436 23.5907 36.6781 24.9562 35.0001 24.9562C33.322 24.9562 31.9566 23.5907 31.9566 21.9127Z" fill="#123149"/>
</svg>
