<svg width="60" height="60" viewBox="0 0 60 60" fill="none" xmlns="http://www.w3.org/2000/svg">
<g clip-path="url(#clip0_84_267)">
<path d="M30 60C46.5685 60 60 46.5685 60 30C60 13.4315 46.5685 0 30 0C13.4315 0 0 13.4315 0 30C0 46.5685 13.4315 60 30 60Z" fill="white"/>
<path d="M30 25.5C27.5 25.5 25.5 27.5 25.5 30C25.5 32.5 27.5 34.5 30 34.5C32.5 34.5 34.5 32.5 34.5 30C34.5 27.5 32.5 25.5 30 25.5ZM14.5 25.5C12 25.5 10 27.5 10 30C10 32.5 12 34.5 14.5 34.5C17 34.5 19 32.5 19 30C19 27.5 17 25.5 14.5 25.5ZM45.5 25.5C43 25.5 41 27.5 41 30C41 32.5 43 34.5 45.5 34.5C48 34.5 50 32.5 50 30C50 27.5 48 25.5 45.5 25.5Z" fill="#0DA864"/>
</g>
<defs>
<clipPath id="clip0_84_267">
<rect width="60" height="60" fill="white"/>
</clipPath>
</defs>
</svg>
