<svg width="70" height="71" viewBox="0 0 70 71" fill="none" xmlns="http://www.w3.org/2000/svg"><path d="M23.8321 70.1095C19.1184 70.1092 14.5106 68.7091 10.5914 66.086C6.67219 63.463 3.6176 59.7349 1.81389 55.3731C0.0101804 51.0113 -0.46164 46.2118 0.458092 41.5815C1.37782 36.9512 3.6478 32.698 6.98097 29.3598C10.3141 26.0215 14.5608 23.7482 19.184 22.8272C23.8071 21.9063 28.5991 22.3791 32.954 24.1858C37.3089 25.9925 41.031 29.0521 43.6498 32.9775C46.2686 36.9029 47.6664 41.518 47.6664 46.2391C47.6591 52.5678 45.1457 58.6353 40.6774 63.1104C36.2091 67.5854 30.151 70.1025 23.8321 70.1095ZM23.8321 25.3746C19.7117 25.3746 15.6838 26.5984 12.2578 28.8912C8.83181 31.184 6.1616 34.4428 4.58483 38.2555C3.00806 42.0683 2.59557 46.2637 3.3995 50.3112C4.20343 54.3588 6.18769 58.0766 9.10134 60.9947C12.015 63.9127 15.7272 65.8999 19.7684 66.7049C23.8097 67.5099 27.9986 67.0965 31.8053 65.5171C35.612 63.9376 38.8656 61.2631 41.1546 57.8316C43.4436 54.4002 44.6653 50.3659 44.6651 46.2391C44.6587 40.7072 42.4617 35.4038 38.5561 31.4924C34.6505 27.5809 29.3553 25.3807 23.8321 25.3746Z" fill="white"/><path d="M50.6329 38.7952C50.235 38.7952 49.8533 38.6368 49.5718 38.3549C49.2904 38.0731 49.1323 37.6908 49.1323 37.2922C49.1323 36.8935 49.2904 36.5113 49.5718 36.2294C49.8533 35.9475 50.235 35.7892 50.6329 35.7892C53.8699 35.7892 57.0341 34.8278 59.7255 33.0266C62.4169 31.2254 64.5146 28.6654 65.7533 25.6701C66.992 22.6749 67.316 19.379 66.6844 16.1993C66.0529 13.0197 64.494 10.099 62.2051 7.80659C59.9162 5.51423 56.9999 3.95317 53.8251 3.32082C50.6504 2.68847 47.3597 3.01323 44.3692 4.25404C41.3787 5.49485 38.8228 7.59597 37.0246 10.2917C35.2264 12.9874 34.2667 16.1567 34.2669 19.3987C34.2669 19.7973 34.1088 20.1796 33.8274 20.4615C33.546 20.7433 33.1643 20.9017 32.7663 20.9017C32.3683 20.9017 31.9866 20.7433 31.7052 20.4615C31.4237 20.1796 31.2656 19.7973 31.2656 19.3987C31.2654 15.5622 32.4011 11.8117 34.5291 8.62167C36.6571 5.43161 39.6817 2.9452 43.2206 1.47688C46.7595 0.00855122 50.6537 -0.375742 54.4107 0.372594C58.1676 1.12093 61.6187 2.96828 64.3273 5.68104C67.036 8.3938 68.8807 11.8501 69.6281 15.6129C70.3754 19.3757 69.992 23.276 68.5261 26.8205C67.0603 30.365 64.5779 33.3945 61.393 35.526C58.208 37.6575 54.4635 38.7952 50.6329 38.7952Z" fill="white"/><path d="M26.0653 61.1626C25.6675 61.162 25.2862 61.0035 25.0049 60.7218C24.7236 60.44 24.5653 60.0581 24.5647 59.6596V57.4227C24.5647 57.228 24.4875 57.0413 24.35 56.9037C24.2126 56.766 24.0262 56.6887 23.8319 56.6887H21.5995C21.5032 56.6886 21.4077 56.7074 21.3187 56.7443C21.2297 56.7811 21.1488 56.8351 21.0806 56.9033C21.0124 56.9715 20.9583 57.0524 20.9215 57.1415C20.8846 57.2307 20.8656 57.3262 20.8656 57.4227V59.6596C20.871 59.8603 20.8362 60.0601 20.7632 60.2471C20.6903 60.4342 20.5806 60.6046 20.4408 60.7485C20.301 60.8924 20.1338 61.0068 19.9491 61.0849C19.7644 61.163 19.5659 61.2032 19.3655 61.2032C19.165 61.2032 18.9665 61.163 18.7818 61.0849C18.5972 61.0068 18.43 60.8924 18.2901 60.7485C18.1503 60.6046 18.0407 60.4342 17.9677 60.2471C17.8947 60.0601 17.86 59.8603 17.8654 59.6596V57.4227C17.8654 57.228 17.7882 57.0413 17.6507 56.9037C17.5133 56.766 17.3269 56.6887 17.1325 56.6887H14.8991C14.6987 56.6941 14.4992 56.6593 14.3125 56.5862C14.1257 56.5131 13.9555 56.4033 13.8119 56.2633C13.6682 56.1232 13.554 55.9558 13.476 55.7708C13.3981 55.5858 13.3579 55.387 13.3579 55.1863C13.3579 54.9855 13.3981 54.7867 13.476 54.6017C13.554 54.4167 13.6682 54.2493 13.8119 54.1092C13.9555 53.9692 14.1257 53.8594 14.3125 53.7863C14.4992 53.7132 14.6987 53.6784 14.8991 53.6838H17.1325C17.3269 53.6838 17.5133 53.6065 17.6507 53.4688C17.7882 53.3312 17.8654 53.1445 17.8654 52.9498V39.5292C17.8654 39.3345 17.7882 39.1478 17.6507 39.0102C17.5133 38.8725 17.3269 38.7952 17.1325 38.7952H14.8991C14.5011 38.7952 14.1194 38.6369 13.8379 38.355C13.5565 38.0731 13.3984 37.6908 13.3984 37.2922C13.3984 36.8936 13.5565 36.5113 13.8379 36.2294C14.1194 35.9476 14.5011 35.7892 14.8991 35.7892H17.1325C17.2288 35.7892 17.3241 35.7702 17.413 35.7334C17.5019 35.6965 17.5827 35.6424 17.6507 35.5743C17.7188 35.5061 17.7728 35.4252 17.8096 35.3361C17.8464 35.2471 17.8654 35.1516 17.8654 35.0553V32.8183C17.8759 32.4268 18.0386 32.055 18.3188 31.7818C18.5989 31.5087 18.9745 31.3559 19.3655 31.3559C19.7564 31.3559 20.132 31.5087 20.4122 31.7818C20.6923 32.055 20.855 32.4268 20.8656 32.8183V35.0542C20.8656 35.1506 20.8846 35.2462 20.9215 35.3353C20.9583 35.4244 21.0124 35.5054 21.0806 35.5735C21.1488 35.6417 21.2297 35.6958 21.3187 35.7326C21.4077 35.7694 21.5032 35.7883 21.5995 35.7881H23.8319C24.0262 35.7881 24.2126 35.7108 24.35 35.5732C24.4875 35.4355 24.5647 35.2488 24.5647 35.0542V32.8183C24.5647 32.4197 24.7228 32.0374 25.0042 31.7555C25.2856 31.4737 25.6673 31.3153 26.0653 31.3153C26.4633 31.3153 26.845 31.4737 27.1264 31.7555C27.4079 32.0374 27.566 32.4197 27.566 32.8183V35.4683C27.566 35.6197 27.6128 35.7674 27.6999 35.8912C27.7871 36.0149 27.9103 36.1086 28.0527 36.1595C28.8736 36.4445 29.6215 36.9075 30.2431 37.5155C30.8646 38.1235 31.3444 38.8615 31.6481 39.6768C31.9519 40.492 32.0721 41.3644 32.0002 42.2316C31.9283 43.0988 31.6661 43.9393 31.2323 44.6932C31.1376 44.8572 31.1101 45.0516 31.1556 45.2355C31.2011 45.4194 31.316 45.5784 31.4762 45.6792C32.5661 46.3707 33.4026 47.3977 33.8601 48.606C34.3175 49.8143 34.3712 51.1386 34.0131 52.38C33.6549 53.6215 32.9043 54.713 31.8739 55.4908C30.8435 56.2685 29.589 56.6904 28.2988 56.6931C28.1044 56.6931 27.918 56.7704 27.7806 56.9081C27.6432 57.0457 27.566 57.2324 27.566 57.427V59.664C27.5642 60.0617 27.4054 60.4425 27.1243 60.7233C26.8431 61.0041 26.4624 61.162 26.0653 61.1626ZM21.5995 47.742C21.5032 47.7418 21.4077 47.7607 21.3187 47.7975C21.2297 47.8343 21.1488 47.8884 21.0806 47.9565C21.0124 48.0247 20.9583 48.1057 20.9215 48.1948C20.8846 48.2839 20.8656 48.3794 20.8656 48.4759V52.9498C20.8656 53.0463 20.8846 53.1418 20.9215 53.231C20.9583 53.3201 21.0124 53.4011 21.0806 53.4692C21.1488 53.5374 21.2297 53.5914 21.3187 53.6283C21.4077 53.6651 21.5032 53.684 21.5995 53.6838H28.2988C32.2243 53.6838 32.22 47.742 28.2988 47.742H21.5995ZM21.5995 38.7952C21.5032 38.7951 21.4077 38.8139 21.3187 38.8508C21.2297 38.8876 21.1488 38.9416 21.0806 39.0098C21.0124 39.078 20.9583 39.1589 20.9215 39.248C20.8846 39.3372 20.8656 39.4327 20.8656 39.5292V44.002C20.8656 44.0985 20.8846 44.194 20.9215 44.2831C20.9583 44.3723 21.0124 44.4532 21.0806 44.5214C21.1488 44.5896 21.2297 44.6436 21.3187 44.6804C21.4077 44.7172 21.5032 44.7361 21.5995 44.736H26.0653C29.992 44.736 29.9865 38.7952 26.0653 38.7952H21.5995Z" fill="white"/><path d="M49.1321 30.5823C49.107 30.4728 49.2557 29.7596 48.617 29.5602C47.7487 29.2974 46.9509 28.8414 46.2834 28.2262C45.6159 27.6109 45.096 26.8525 44.7625 26.0076C44.6221 25.6348 44.6353 25.2215 44.7992 24.8585C44.9631 24.4955 45.2643 24.2125 45.6365 24.0719C46.0086 23.9313 46.4214 23.9445 46.7838 24.1086C47.1463 24.2728 47.4288 24.5744 47.5692 24.9472C47.8298 25.5202 48.2563 26.0017 48.7934 26.329C49.3305 26.6564 49.9534 26.8146 50.5814 26.7832C53.3913 26.7832 55.8949 23.086 50.0826 20.7964C42.5794 17.8387 43.6294 11.1059 48.6443 9.3301C49.2929 9.09895 49.1015 8.37594 49.1321 8.21491C49.1321 7.81629 49.2903 7.434 49.5717 7.15213C49.8531 6.87026 50.2348 6.71191 50.6328 6.71191C51.0308 6.71191 51.4125 6.87026 51.6939 7.15213C51.9753 7.434 52.1334 7.81629 52.1334 8.21491C52.1586 8.32445 52.0098 9.03761 52.6486 9.23698C53.5168 9.49966 54.3145 9.95556 54.982 10.5706C55.6495 11.1856 56.1694 11.9438 56.503 12.7885C56.6437 13.1614 56.6308 13.575 56.467 13.9384C56.3032 14.3017 56.002 14.5849 55.6297 14.7259C55.2573 14.8668 54.8444 14.8538 54.4816 14.6897C54.1189 14.5257 53.836 14.224 53.6953 13.8511C52.665 11.1124 47.6665 11.4674 47.6665 14.7461C47.6665 18.2516 56.5993 18.0983 56.5993 24.0511C56.5893 25.2582 56.1995 26.4314 55.4853 27.4038C54.7711 28.3762 53.7689 29.0982 52.6213 29.4671C51.9716 29.6972 52.1641 30.4213 52.1334 30.5823C52.1334 30.9809 51.9753 31.3632 51.6939 31.6451C51.4125 31.927 51.0308 32.0853 50.6328 32.0853C50.2348 32.0853 49.8531 31.927 49.5717 31.6451C49.2903 31.3632 49.1321 30.9809 49.1321 30.5823Z" fill="white"/><path d="M46.0575 65.9892C58.1502 65.1128 67.7206 53.5435 66.955 40.7374C66.9422 40.3461 67.0823 39.9653 67.3456 39.6759C67.6088 39.3865 67.9744 39.2115 68.3646 39.1879C68.7547 39.1644 69.1386 39.2942 69.4347 39.5498C69.7307 39.8054 69.9155 40.1667 69.9497 40.5566C70.8247 55.2174 60.2075 67.9709 46.2751 68.9875C45.8781 69.0164 45.486 68.8862 45.1848 68.6255C44.8837 68.3648 44.6983 67.9949 44.6695 67.5973C44.6406 67.1997 44.7706 66.8069 45.0309 66.5054C45.2912 66.2038 45.6605 66.0181 46.0575 65.9892Z" fill="white"/><path d="M1.12323 23.7181C1.78968 17.2064 4.83787 11.1719 9.68087 6.77656C12.3445 4.33474 15.4905 2.48056 18.9152 1.33413C22.3399 0.187693 25.9669 -0.225418 29.5612 0.121554C29.9513 0.166857 30.3082 0.363552 30.5552 0.669419C30.8021 0.975285 30.9196 1.36594 30.8822 1.75753C30.8448 2.14913 30.6557 2.51044 30.3553 2.76391C30.055 3.01739 29.6674 3.14283 29.2757 3.1133C23.1706 2.54947 17.0915 4.43489 12.373 8.35569C7.65445 12.2765 4.682 17.9123 4.10812 24.0259C4.05994 24.4162 3.86091 24.7721 3.55374 25.0171C3.24657 25.2622 2.85574 25.3769 2.46511 25.3366C2.07448 25.2963 1.71518 25.1043 1.46431 24.8017C1.21344 24.4991 1.09099 24.1101 1.12323 23.7181Z" fill="white"/></svg>