<svg width="712" height="385" viewBox="0 0 712 385" fill="none" xmlns="http://www.w3.org/2000/svg">
<path d="M4.41074e-06 121.85L24.2239 115.293C25.2678 115.011 26.3472 115.609 26.6606 116.644L51.8973 199.995C52.0844 200.614 52.5586 201.103 53.1705 201.31L76.3042 209.137C77.3868 209.503 78.5557 208.89 78.8687 207.79L104.151 118.994C104.304 118.456 104.676 118.007 105.176 117.755L128.933 105.813C129.825 105.365 130.911 105.643 131.477 106.465L155.469 141.252C156.089 142.151 157.316 142.386 158.225 141.78L182.141 125.828C182.494 125.593 182.763 125.251 182.909 124.852L206.027 61.6835C206.743 59.7273 209.6 60.0322 209.886 62.0955L234.198 236.945C234.446 238.727 236.736 239.301 237.796 237.847L260.749 206.34C260.9 206.133 261.01 205.898 261.073 205.649L286.068 106.022C286.475 104.398 288.577 103.963 289.595 105.292L312.896 135.699C313.079 135.937 313.205 136.214 313.267 136.508L337.099 251.158C337.549 253.325 340.665 253.264 341.029 251.08L365.263 105.921C365.332 105.507 365.53 105.124 365.829 104.829L388.605 82.2984C389.78 81.136 391.778 81.8197 391.994 83.4583L417.09 273.407C417.296 274.968 419.141 275.69 420.351 274.683L443.507 255.433C443.611 255.347 443.705 255.251 443.789 255.147L469.504 223.08C469.673 222.869 469.883 222.695 470.121 222.567L495.03 209.244C495.554 208.964 495.927 208.464 496.046 207.881L520.403 88.5865C520.816 86.5616 523.655 86.4174 524.271 88.39L547.992 164.286C548.033 164.418 548.088 164.545 548.155 164.666L571.17 205.824C572.113 207.511 574.664 207.012 574.901 205.093L599.258 8.02083C599.514 5.9494 602.373 5.60569 603.113 7.55745L626.347 68.8716L650.833 125.285C651.493 126.805 653.609 126.909 654.415 125.462L679.202 80.9808L711 38.78" stroke="#0ECB78" stroke-width="2" stroke-linecap="round" stroke-linejoin="round"/>
<path d="M24.2252 115.118L1.47821 121.266C0.605896 121.501 0 122.293 0 123.196V383C0 384.105 0.895447 385 2 385H709C710.105 385 711 384.105 711 383V44.6918C711 42.7728 708.56 41.9553 707.404 43.4871L679.202 80.8582L654.414 125.273C653.607 126.719 651.494 126.614 650.834 125.096L626.347 68.7673L603.112 7.54489C602.372 5.59419 599.514 5.93819 599.258 8.00884L574.901 204.782C574.663 206.7 572.115 207.199 571.171 205.514L548.155 164.417C548.088 164.296 548.033 164.169 547.991 164.037L524.271 88.2552C523.654 86.2836 520.817 86.4279 520.403 88.452L496.046 207.564C495.927 208.147 495.554 208.647 495.029 208.928L470.121 222.23C469.883 222.357 469.673 222.532 469.504 222.742L443.789 254.76C443.705 254.865 443.611 254.961 443.507 255.046L420.35 274.268C419.139 275.273 417.296 274.552 417.09 272.992L391.994 83.333C391.777 81.6954 389.781 81.0116 388.606 82.1725L365.83 104.669C365.53 104.965 365.332 105.347 365.262 105.762L341.029 250.701C340.664 252.883 337.55 252.945 337.099 250.778L313.267 136.303C313.205 136.008 313.078 135.731 312.895 135.493L289.594 105.131C288.576 103.804 286.475 104.239 286.068 105.861L261.073 205.337C261.01 205.586 260.9 205.821 260.749 206.028L237.795 237.488C236.735 238.941 234.446 238.366 234.198 236.586L209.886 62.0015C209.599 59.939 206.744 59.6339 206.028 61.589L182.91 124.662C182.764 125.061 182.494 125.403 182.141 125.638L158.223 141.566C157.315 142.171 156.089 141.936 155.469 141.038L131.477 106.303C130.91 105.483 129.826 105.205 128.934 105.652L105.177 117.577C104.676 117.828 104.304 118.277 104.15 118.816L78.869 207.475C78.5558 208.573 77.3878 209.186 76.3055 208.821L53.1707 201.006C52.5588 200.799 52.0843 200.309 51.8969 199.691L26.6609 116.469C26.3474 115.434 25.2687 114.836 24.2252 115.118Z" fill="url(#paint0_linear_1857_228)" fill-opacity="0.2"/>
<defs>
<linearGradient id="paint0_linear_1857_228" x1="355.5" y1="0" x2="355.5" y2="385" gradientUnits="userSpaceOnUse">
<stop stop-color="#0ECB78"/>
<stop offset="1" stop-color="#0ECB78" stop-opacity="0"/>
</linearGradient>
</defs>
</svg>
